<?xml version="1.0" encoding="UTF-8"?>
<svg version="1.1" xmlns="http://www.w3.org/2000/svg" width="591" height="591">
<path d="M0 0 C195.03 0 390.06 0 591 0 C591 195.03 591 390.06 591 591 C395.97 591 200.94 591 0 591 C0 395.97 0 200.94 0 0 Z " fill="#CB6CE5" transform="translate(0,0)"/>
<path d="M0 0 C6.61777208 1.19154187 13.33440568 1.80670308 20.015625 2.54296875 C16.43871765 5.73122502 13.61683832 7.23169391 8.953125 8.29296875 C7.93089844 8.5353125 6.90867187 8.77765625 5.85546875 9.02734375 C3.015625 9.54296875 3.015625 9.54296875 -0.984375 9.54296875 C-0.65050781 10.36667969 -0.31664062 11.19039062 0.02734375 12.0390625 C1.15340616 16.03146559 1.1291641 19.52429306 0.828125 23.60546875 C0.79654297 24.29962891 0.76496094 24.99378906 0.73242188 25.70898438 C0.44283759 30.12829239 -0.52012923 32.90245633 -2.984375 36.54296875 C-3.29883113 39.76614405 -2.90115939 42.44882142 -1.984375 45.54296875 C-0.004375 46.03796875 -0.004375 46.03796875 2.015625 46.54296875 C2.2321875 47.50203125 2.2321875 47.50203125 2.453125 48.48046875 C2.82569681 50.51842021 2.82569681 50.51842021 4.015625 51.54296875 C5.44997086 51.70007763 6.88859744 51.81901596 8.328125 51.91796875 C12.00313998 52.29249257 14.46132235 52.65549619 17.015625 55.54296875 C17.015625 56.53296875 17.015625 57.52296875 17.015625 58.54296875 C16.14421875 58.47335938 15.2728125 58.40375 14.375 58.33203125 C0.85393534 57.7174374 -7.36161069 62.9218729 -17.8046875 71.00390625 C-19.984375 72.54296875 -19.984375 72.54296875 -21.984375 72.54296875 C-22.314375 70.56296875 -22.644375 68.58296875 -22.984375 66.54296875 C-23.479375 72.48296875 -23.479375 72.48296875 -23.984375 78.54296875 C-20.54544971 77.39666032 -19.638084 75.8998305 -17.44287109 73.14697266 C-14.95943957 70.41577997 -11.93184948 68.63372912 -8.796875 66.73046875 C-8.16845703 66.33666016 -7.54003906 65.94285156 -6.89257812 65.53710938 C0.68288503 60.81358529 7.33837062 61.06009324 16.015625 62.54296875 C20.62229865 64.14017312 24.55563274 66.08297649 28.015625 69.54296875 C28.140625 72.66796875 28.140625 72.66796875 28.015625 75.54296875 C28.675625 75.54296875 29.335625 75.54296875 30.015625 75.54296875 C30.18578125 76.06503906 30.3559375 76.58710938 30.53125 77.125 C31.97023629 81.49553815 33.49596867 85.80775367 35.140625 90.10546875 C36.76181459 94.57920948 37.81435038 98.77946937 38.015625 103.54296875 C38.0671875 104.54328125 38.11875 105.54359375 38.171875 106.57421875 C38.46137903 116.89986257 35.88816416 124.82635561 31.8828125 134.21875 C29.80168985 139.79653368 29.721205 145.46923379 29.453125 151.35546875 C29.30875 154.38734375 29.164375 157.41921875 29.015625 160.54296875 C36.935625 160.54296875 44.855625 160.54296875 53.015625 160.54296875 C52.355625 160.87296875 51.695625 161.20296875 51.015625 161.54296875 C51.180625 162.20296875 51.345625 162.86296875 51.515625 163.54296875 C52.13745799 167.27396669 52.07971426 170.76170253 52.015625 174.54296875 C53.2325 174.46046875 54.449375 174.37796875 55.703125 174.29296875 C59.0882424 174.28096479 59.95430734 174.50382982 62.953125 176.41796875 C66.0960546 179.65613864 66.21098215 181.9113805 66.5390625 186.375 C65.65007897 190.056984 64.05913911 191.3145481 61.015625 193.54296875 C57.3066389 194.48708152 53.575245 194.70696191 49.765625 194.98046875 C47.33136174 195.20241081 44.89779672 195.43209645 42.46484375 195.66796875 C41.80721542 195.73072495 41.1495871 195.79348114 40.47203064 195.85813904 C31.46532419 196.74809145 22.52645156 198.13948959 13.578125 199.48046875 C11.8069155 199.74385907 10.03567531 200.00704318 8.2644043 200.27001953 C4.80494089 200.78424596 1.34575082 201.30026357 -2.11328125 201.81738281 C-9.04631672 202.85222024 -15.98326596 203.8587077 -22.921875 204.85546875 C-24.01491943 205.0145874 -25.10796387 205.17370605 -26.23413086 205.33764648 C-32.47285145 206.23325803 -38.70713016 206.97547036 -44.984375 207.54296875 C-44.61352539 205.60839844 -44.61352539 205.60839844 -43.984375 203.54296875 C-41.08785322 202.07554373 -38.12788883 201.4284656 -34.984375 200.54296875 C-34.654375 196.91296875 -34.324375 193.28296875 -33.984375 189.54296875 C-34.644375 189.54296875 -35.304375 189.54296875 -35.984375 189.54296875 C-36.314375 188.88296875 -36.644375 188.22296875 -36.984375 187.54296875 C-39.11014282 187.07645668 -39.11014282 187.07645668 -41.546875 186.91796875 C-42.78630859 186.80582031 -42.78630859 186.80582031 -44.05078125 186.69140625 C-44.68886719 186.64242187 -45.32695312 186.5934375 -45.984375 186.54296875 C-45.984375 184.89296875 -45.984375 183.24296875 -45.984375 181.54296875 C-43.674375 181.21296875 -41.364375 180.88296875 -38.984375 180.54296875 C-39.62375 180.13046875 -40.263125 179.71796875 -40.921875 179.29296875 C-43.2461917 177.32082124 -43.41755129 176.43078641 -43.984375 173.54296875 C-52.80795103 183.03361925 -55.64488957 194.99964267 -55.45068359 207.60473633 C-55.24672174 212.31821852 -54.45402678 216.33261024 -52.65234375 220.671875 C-51.57761153 223.6823822 -51.7824776 226.37990954 -51.984375 229.54296875 C-60.50982249 232.38478458 -69.78001316 230.65432945 -77.984375 227.54296875 C-77.73880859 228.63158203 -77.73880859 228.63158203 -77.48828125 229.7421875 C-77.01669025 232.36335606 -76.88224035 234.69994742 -76.921875 237.35546875 C-76.93089844 238.14566406 -76.93992188 238.93585938 -76.94921875 239.75 C-76.96082031 240.34167969 -76.97242188 240.93335938 -76.984375 241.54296875 C-92.99713215 248.12859121 -107.67413034 252.31820866 -124.984375 247.54296875 C-124.984375 245.89296875 -124.984375 244.24296875 -124.984375 242.54296875 C-123.25587155 241.74985508 -121.52654146 240.95854285 -119.796875 240.16796875 C-118.83394531 239.72710937 -117.87101563 239.28625 -116.87890625 238.83203125 C-115.01838005 238.00345683 -113.13423727 237.22507022 -111.2265625 236.51171875 C-108.52974613 235.34654373 -107.64109248 233.90970801 -105.984375 231.54296875 C-105.324375 231.54296875 -104.664375 231.54296875 -103.984375 231.54296875 C-102.994375 229.56296875 -102.994375 229.56296875 -101.984375 227.54296875 C-100.664375 227.54296875 -99.344375 227.54296875 -97.984375 227.54296875 C-97.55125 226.33640625 -97.55125 226.33640625 -97.109375 225.10546875 C-95.984375 222.54296875 -95.984375 222.54296875 -93.984375 221.54296875 C-93.32665072 218.51362384 -93.32665072 218.51362384 -92.984375 215.54296875 C-94.3765625 215.35734375 -94.3765625 215.35734375 -95.796875 215.16796875 C-98.984375 214.54296875 -98.984375 214.54296875 -101.984375 212.54296875 C-101.04085005 202.00879023 -99.92077434 191.57134465 -98.16308594 181.14038086 C-96.8158943 172.94327687 -95.92968048 164.69830545 -95.07446289 156.43701172 C-94.47889056 150.91243376 -93.70840303 145.82628046 -91.984375 140.54296875 C-91.675 139.30546875 -91.365625 138.06796875 -91.046875 136.79296875 C-89.59431764 132.34985212 -89.59431764 132.34985212 -86.984375 130.54296875 C-82.92619105 129.31090581 -78.93671158 129.4322087 -74.734375 129.48046875 C-73.98929688 129.48498047 -73.24421875 129.48949219 -72.4765625 129.49414062 C-70.6457986 129.50587629 -68.81507627 129.52381025 -66.984375 129.54296875 C-66.984375 127.89296875 -66.984375 126.24296875 -66.984375 124.54296875 C-67.59925781 124.27742188 -68.21414062 124.011875 -68.84765625 123.73828125 C-69.65589844 123.38507813 -70.46414062 123.031875 -71.296875 122.66796875 C-72.09738281 122.31992188 -72.89789063 121.971875 -73.72265625 121.61328125 C-75.984375 120.54296875 -75.984375 120.54296875 -78.984375 118.54296875 C-79.231875 117.61484375 -79.479375 116.68671875 -79.734375 115.73046875 C-81.44867074 111.35901461 -83.90922346 109.56772958 -87.984375 107.54296875 C-92.89926454 105.62300646 -97.9363153 104.06973069 -102.984375 102.54296875 C-102.489375 101.05796875 -102.489375 101.05796875 -101.984375 99.54296875 C-95.11581026 96.51381951 -85.99858377 94.60198471 -78.8046875 97.38671875 C-76.75366441 98.60580075 -75.41571696 99.63297867 -73.984375 101.54296875 C-73.23024248 106.82189642 -73.99299755 110.56452512 -75.984375 115.54296875 C-75.241875 114.96546875 -74.499375 114.38796875 -73.734375 113.79296875 C-65.3017409 108.26337262 -54.93584825 105.87153267 -44.984375 107.54296875 C-41.56423936 109.0692182 -38.89651068 111.21326021 -35.984375 113.54296875 C-33.91383069 114.97826262 -31.8298314 116.39429627 -29.734375 117.79296875 C-28.75984375 118.458125 -27.7853125 119.12328125 -26.78125 119.80859375 C-24.22447735 121.39407846 -21.80954576 122.53250622 -18.984375 123.54296875 C-18.984375 124.86296875 -18.984375 126.18296875 -18.984375 127.54296875 C-16.37830108 126.92518828 -13.77471803 126.29909664 -11.171875 125.66796875 C-10.06489258 125.40693359 -10.06489258 125.40693359 -8.93554688 125.140625 C-5.48720463 124.29804364 -2.96509138 123.530113 0.015625 121.54296875 C2.16508165 120.78401112 4.33469585 120.0810891 6.515625 119.41796875 C7.6603125 119.06476563 8.805 118.7115625 9.984375 118.34765625 C13.015625 117.54296875 13.015625 117.54296875 16.015625 117.54296875 C16.015625 116.88296875 16.015625 116.22296875 16.015625 115.54296875 C11.98422786 116.09629777 8.00097936 116.72387174 4.015625 117.54296875 C3.53333168 115.04353671 3.05473074 112.54348632 2.578125 110.04296875 C2.44341797 109.346875 2.30871094 108.65078125 2.16992188 107.93359375 C1.26191481 103.14994677 0.57665787 98.37983465 0.015625 93.54296875 C0.03133545 94.3201123 0.0470459 95.09725586 0.06323242 95.89794922 C0.12542851 99.40454895 0.16456707 102.91103288 0.203125 106.41796875 C0.22826172 107.64128906 0.25339844 108.86460937 0.27929688 110.125 C0.28896484 111.29160156 0.29863281 112.45820313 0.30859375 113.66015625 C0.3243042 114.73894043 0.34001465 115.81772461 0.35620117 116.92919922 C0.24381104 117.79174316 0.1314209 118.65428711 0.015625 119.54296875 C-4.27926978 122.40623193 -7.9445348 122.38171588 -12.984375 121.54296875 C-15.42670138 120.32390739 -17.4599369 118.88935532 -19.640625 117.25 C-22.13815087 115.43096866 -24.68322033 114.03249246 -27.421875 112.60546875 C-32.90151721 109.67989706 -38.09924903 106.38960807 -42.984375 102.54296875 C-42.984375 102.21296875 -42.984375 101.88296875 -42.984375 101.54296875 C-41.334375 101.54296875 -39.684375 101.54296875 -37.984375 101.54296875 C-38.02103271 100.73666016 -38.05769043 99.93035156 -38.09545898 99.09960938 C-38.24177496 95.41445752 -38.33226166 91.72991761 -38.421875 88.04296875 C-38.50985352 86.1403125 -38.50985352 86.1403125 -38.59960938 84.19921875 C-38.79300258 73.59021991 -38.79300258 73.59021991 -34.71875 68.8515625 C-33.50904021 67.71032685 -32.2674113 66.60109654 -30.984375 65.54296875 C-30.22769531 64.86363281 -29.47101563 64.18429688 -28.69140625 63.484375 C-28.06621094 63.02933594 -27.44101562 62.57429688 -26.796875 62.10546875 C-26.16394531 61.63238281 -25.53101563 61.15929687 -24.87890625 60.671875 C-22.91196857 59.49982347 -21.2222126 58.97465804 -18.984375 58.54296875 C-19.44259968 62.01238421 -19.87569183 65.21691924 -20.984375 68.54296875 C-19.994375 68.54296875 -19.004375 68.54296875 -17.984375 68.54296875 C-18.005 67.49109375 -18.025625 66.43921875 -18.046875 65.35546875 C-17.984375 61.54296875 -17.984375 61.54296875 -17.421875 58.79296875 C-16.76297147 56.38803119 -16.76297147 56.38803119 -17.984375 53.54296875 C-18.974375 54.03796875 -18.974375 54.03796875 -19.984375 54.54296875 C-22.3173616 54.58319266 -24.65144166 54.58617122 -26.984375 54.54296875 C-29.984375 48.79296875 -29.984375 48.79296875 -29.984375 46.54296875 C-30.644375 46.54296875 -31.304375 46.54296875 -31.984375 46.54296875 C-32.108125 45.90359375 -32.231875 45.26421875 -32.359375 44.60546875 C-32.66875 43.58453125 -32.66875 43.58453125 -32.984375 42.54296875 C-33.644375 42.21296875 -34.304375 41.88296875 -34.984375 41.54296875 C-35.57181709 39.0551515 -36.06155359 36.62148843 -36.484375 34.10546875 C-37.1621404 28.84743808 -37.1621404 28.84743808 -39.984375 24.54296875 C-40.1796875 22.37890625 -40.1796875 22.37890625 -40.109375 19.91796875 C-40.09132813 19.10070312 -40.07328125 18.2834375 -40.0546875 17.44140625 C-40.03148437 16.81492187 -40.00828125 16.1884375 -39.984375 15.54296875 C-39.324375 15.54296875 -38.664375 15.54296875 -37.984375 15.54296875 C-37.984375 13.89296875 -37.984375 12.24296875 -37.984375 10.54296875 C-42.934375 10.21296875 -47.884375 9.88296875 -52.984375 9.54296875 C-52.87051041 12.3146727 -52.74376722 15.08474921 -52.609375 17.85546875 C-52.5784375 18.64115234 -52.5475 19.42683594 -52.515625 20.23632812 C-52.47695313 20.99365234 -52.43828125 21.75097656 -52.3984375 22.53125 C-52.35130615 23.57599487 -52.35130615 23.57599487 -52.30322266 24.6418457 C-52.06319247 26.86829614 -52.06319247 26.86829614 -49.984375 29.54296875 C-49.75732422 31.4440918 -49.75732422 31.4440918 -49.7890625 33.5546875 C-49.79550781 34.31201172 -49.80195313 35.06933594 -49.80859375 35.84960938 C-49.83373047 37.02813477 -49.83373047 37.02813477 -49.859375 38.23046875 C-49.86839844 39.02775391 -49.87742187 39.82503906 -49.88671875 40.64648438 C-49.91025915 42.61210775 -49.94612953 44.5775765 -49.984375 46.54296875 C-52.96650413 48.03403332 -55.70047158 47.66238342 -58.984375 47.54296875 C-60.70130239 45.82604136 -60.19753877 43.63820849 -60.234375 41.29296875 C-60.13473732 24.69333107 -60.13473732 24.69333107 -55.984375 20.54296875 C-55.75009722 18.52702293 -55.57101376 16.50449475 -55.421875 14.48046875 C-55.29619141 12.82337891 -55.29619141 12.82337891 -55.16796875 11.1328125 C-55.10738281 10.27816406 -55.04679687 9.42351562 -54.984375 8.54296875 C-57.294375 8.21296875 -59.604375 7.88296875 -61.984375 7.54296875 C-61.984375 7.21296875 -61.984375 6.88296875 -61.984375 6.54296875 C-41.00108467 -0.16728399 -21.91534658 -4.4704618 0 0 Z " fill="#D3D1D4" transform="translate(322.984375,100.45703125)"/>
<path d="M0 0 C2.86473146 2.37941224 2.86951563 2.9616094 3.4375 6.9375 C3.12117253 10.48440589 2.19912131 13.68969673 0.875 17 C1.6175 16.4225 2.36 15.845 3.125 15.25 C11.5576341 9.72040387 21.92352675 7.32856392 31.875 9 C35.29513564 10.52624945 37.96286432 12.67029146 40.875 15 C42.94554431 16.43529387 45.0295436 17.85132752 47.125 19.25 C48.58679688 20.24773437 48.58679688 20.24773437 50.078125 21.265625 C52.63489765 22.85110971 55.04982924 23.98953747 57.875 25 C57.875 26.32 57.875 27.64 57.875 29 C58.535 29.33 59.195 29.66 59.875 30 C58.555 30.33 57.235 30.66 55.875 31 C59.41051033 38.31207818 63.15023073 45.40599193 67.33398438 52.36572266 C68.97434838 55.15002472 69.875 56.70542025 69.875 60 C71.36 60.495 71.36 60.495 72.875 61 C73.65912467 62.69893678 74.43545627 64.40351462 75.12109375 66.14453125 C76.12663246 68.61930268 77.34876546 70.81018522 78.875 73 C79.535 73 80.195 73 80.875 73 C82.1995153 71.06990676 83.4339053 69.07766603 84.625 67.0625 C85.33717037 65.87157473 86.0507227 64.68147483 86.765625 63.4921875 C87.11947266 62.90147461 87.47332031 62.31076172 87.83789062 61.70214844 C90.06034844 58.05455525 92.46848601 54.52773073 94.875 51 C95.205 51.66 95.535 52.32 95.875 53 C94.87890625 55.3828125 94.87890625 55.3828125 93.4375 58.125 C92.72787109 59.49011719 92.72787109 59.49011719 92.00390625 60.8828125 C91.63136719 61.58148438 91.25882812 62.28015625 90.875 63 C91.83019531 62.89171875 91.83019531 62.89171875 92.8046875 62.78125 C105.13154761 61.6041493 117.50584516 61.90997704 129.875 62 C128.885 62.495 128.885 62.495 127.875 63 C128.04 63.66 128.205 64.32 128.375 65 C128.99683299 68.73099794 128.93908926 72.21873378 128.875 76 C130.091875 75.9175 131.30875 75.835 132.5625 75.75 C135.9476174 75.73799604 136.81368234 75.96086107 139.8125 77.875 C142.9554296 81.11316989 143.07035715 83.36841175 143.3984375 87.83203125 C142.50945397 91.51401525 140.91851411 92.77157935 137.875 95 C134.1660139 95.94411277 130.43462 96.16399316 126.625 96.4375 C124.19073674 96.65944206 121.75717172 96.8891277 119.32421875 97.125 C118.33777626 97.21913429 118.33777626 97.21913429 117.33140564 97.31517029 C108.32469919 98.2051227 99.38582656 99.59652084 90.4375 100.9375 C88.6662905 101.20089032 86.89505031 101.46407443 85.1237793 101.72705078 C81.66431589 102.24127721 78.20512582 102.75729482 74.74609375 103.27441406 C67.81305828 104.30925149 60.87610904 105.31573895 53.9375 106.3125 C52.84445557 106.47161865 51.75141113 106.6307373 50.62524414 106.79467773 C44.38652355 107.69028928 38.15224484 108.43250161 31.875 109 C32.24584961 107.06542969 32.24584961 107.06542969 32.875 105 C35.77152178 103.53257498 38.73148617 102.88549685 41.875 102 C42.205 98.37 42.535 94.74 42.875 91 C42.215 91 41.555 91 40.875 91 C40.545 90.34 40.215 89.68 39.875 89 C37.74923218 88.53348793 37.74923218 88.53348793 35.3125 88.375 C34.48621094 88.30023438 33.65992188 88.22546875 32.80859375 88.1484375 C31.85146484 88.07496094 31.85146484 88.07496094 30.875 88 C30.875 86.35 30.875 84.7 30.875 83 C33.185 82.67 35.495 82.34 37.875 82 C37.25625 81.5875 36.6375 81.175 36 80.75 C33.72990516 78.88051013 32.84593511 77.75098282 31.875 75 C31.75 72.25 31.75 72.25 31.875 70 C38.51163258 67.5594717 45.10511165 66.02968775 52.0625 64.8125 C53.02091797 64.63525391 53.97933594 64.45800781 54.96679688 64.27539062 C59.65698725 63.43588868 64.08840106 62.76670358 68.875 63 C68.38 62.21625 67.885 61.4325 67.375 60.625 C65.875 58 65.875 58 65.875 56 C65.215 56 64.555 56 63.875 56 C63.4728125 55.071875 63.4728125 55.071875 63.0625 54.125 C61.91943152 51.7004767 61.91943152 51.7004767 58.875 50 C59.535 50 60.195 50 60.875 50 C60.545 48.35 60.215 46.7 59.875 45 C58.39 44.505 58.39 44.505 56.875 44 C56.875 42.68 56.875 41.36 56.875 40 C56.215 40 55.555 40 54.875 40 C52.875 37 52.875 37 52.875 33 C51.616875 33.0825 50.35875 33.165 49.0625 33.25 C46.83203125 33.25390625 46.83203125 33.25390625 44.875 33 C43.25 31.1875 43.25 31.1875 41.875 29 C37.22878401 26.08260856 33.22831641 25.46149279 27.875 25 C27.875 25.99 27.875 26.98 27.875 28 C21.78160831 29.88341198 17.14967799 30.0748291 10.875 29 C15.76353111 35.83924304 23.26492315 39.86012085 31.45117188 41.5234375 C35.06072364 42.07277345 38.65816707 42.54354715 42.296875 42.85009766 C44.59081065 43.08083532 46.67869576 43.29666253 48.875 44 C50.453125 46.5859375 50.453125 46.5859375 50.875 49 C49.905625 48.96519531 48.93625 48.93039063 47.9375 48.89453125 C33.65598191 48.54378868 20.65816658 51.31926802 6.875 55 C7.48046875 53.13671875 7.48046875 53.13671875 8.875 51 C11.73828125 49.76953125 11.73828125 49.76953125 15.1875 48.8125 C16.88326172 48.32716797 16.88326172 48.32716797 18.61328125 47.83203125 C21.35936985 47.131532 24.08954138 46.51737412 26.875 46 C26.875 45.34 26.875 44.68 26.875 44 C25.1734375 43.2265625 25.1734375 43.2265625 23.4375 42.4375 C18.33141837 39.89357719 11.49773312 36.24546625 8.875 31 C9.15442455 29.32345271 9.48328247 27.65391846 9.875 26 C9.26011719 25.73445313 8.64523438 25.46890625 8.01171875 25.1953125 C6.79935547 24.66550781 6.79935547 24.66550781 5.5625 24.125 C4.76199219 23.77695313 3.96148437 23.42890625 3.13671875 23.0703125 C0.875 22 0.875 22 -2.125 20 C-2.3725 19.071875 -2.62 18.14375 -2.875 17.1875 C-4.58929574 12.81604586 -7.04984846 11.02476083 -11.125 9 C-16.03988954 7.08003771 -21.0769403 5.52676194 -26.125 4 C-25.795 3.01 -25.465 2.02 -25.125 1 C-17.57730282 -2.32865774 -7.42837394 -4.41525841 0 0 Z " fill="#CC80E2" transform="translate(246.125,199)"/>
<path d="M0 0 C0.84087158 0.00829834 1.68174316 0.01659668 2.5480957 0.02514648 C12.17304364 0.28694209 18.59408631 3.0640169 25.99609375 9.16796875 C30.75040068 15.54730438 31.24147058 23.16491717 31.1875 30.875 C31.18322998 31.79861328 31.17895996 32.72222656 31.17456055 33.67382812 C30.98350073 41.3054187 29.68003458 47.3396215 24.20703125 52.95703125 C23.74683594 53.38371094 23.28664063 53.81039062 22.8125 54.25 C22.11125 54.971875 21.41 55.69375 20.6875 56.4375 C21.06341518 59.94995744 22.2101877 63.00549879 23.5625 66.25 C23.91957031 67.13042969 24.27664063 68.01085937 24.64453125 68.91796875 C25.49543191 70.97351529 26.36939726 73.01950163 27.25 75.0625 C28.76304224 79.11944842 29.56332953 83.32105326 30.375 87.5625 C30.50656494 88.24393066 30.63812988 88.92536133 30.77368164 89.62744141 C31.49412055 93.60705488 31.91484021 97.39453088 31.6875 101.4375 C30.6875 102.4375 30.6875 102.4375 27.96484375 102.53515625 C26.86269531 102.52355469 25.76054687 102.51195312 24.625 102.5 C23.52027344 102.49097656 22.41554688 102.48195313 21.27734375 102.47265625 C20.42269531 102.46105469 19.56804687 102.44945312 18.6875 102.4375 C18.53192627 101.75872803 18.37635254 101.07995605 18.21606445 100.38061523 C15.25081181 87.52393267 12.24337211 74.83511659 7.6875 62.4375 C4.7175 62.1075 1.7475 61.7775 -1.3125 61.4375 C-1.30202637 62.46633301 -1.29155273 63.49516602 -1.28076172 64.55517578 C-1.24442401 68.39058928 -1.22154962 72.2259877 -1.20263672 76.06152344 C-1.19261043 77.71812503 -1.17898594 79.37470907 -1.16162109 81.03125 C-1.13722379 83.41931505 -1.12598306 85.80714508 -1.1171875 88.1953125 C-1.10686493 88.92992706 -1.09654236 89.66454163 -1.08590698 90.42141724 C-1.08495932 94.81446359 -1.68973663 98.35532363 -3.3125 102.4375 C-12.49869583 102.59319823 -12.49869583 102.59319823 -16.3125 101.4375 C-17.81919416 98.42411168 -17.45110021 95.31757295 -17.44189453 92.01293945 C-17.44364685 91.24670258 -17.44539917 90.4804657 -17.44720459 89.69100952 C-17.45162294 87.14424403 -17.44868142 84.59754752 -17.4453125 82.05078125 C-17.44598644 80.273534 -17.44695722 78.49628685 -17.44821167 76.71903992 C-17.44968935 72.98057178 -17.44753517 69.24212748 -17.44287109 65.50366211 C-17.43722746 60.75212567 -17.44041786 56.00064638 -17.44644356 51.24911213 C-17.45009351 47.56924527 -17.44888953 43.88939146 -17.44631577 40.20952415 C-17.44565587 38.46074606 -17.44644152 36.71196672 -17.44879532 34.96319008 C-17.4598665 24.40732911 -17.17593188 13.96133759 -16.3125 3.4375 C-10.72057442 0.61533676 -6.23122727 -0.07890775 0 0 Z " fill="#D3D0D4" transform="translate(470.3125,387.5625)"/>
<path d="M0 0 C0.67224609 -0.02835937 1.34449219 -0.05671875 2.03710938 -0.0859375 C4.00390625 -0.09375 4.00390625 -0.09375 7.4375 0.5 C10.67644829 4.07167044 11.26665675 8.49463926 12.0625 13.125 C13.00152581 18.37089601 13.00152581 18.37089601 14.4375 23.5 C14.56797278 25.14395709 14.66729298 26.79044882 14.75 28.4375 C15.16994129 34.07284125 16.19090766 39.42745219 17.375 44.9375 C19.43212893 54.61875905 20.44952331 64.25489636 21.23193359 74.11083984 C21.55934678 77.9161432 21.99900137 81.70603359 22.4375 85.5 C23.0975 85.5 23.7575 85.5 24.4375 85.5 C24.4375 90.45 24.4375 95.4 24.4375 100.5 C16.13671875 100.98828125 16.13671875 100.98828125 13.4375 100.5 C10.64195768 97.10674707 9.76195622 93.48603545 8.8125 89.25 C8.23629721 85.56879594 8.23629721 85.56879594 6.4375 82.5 C6.39669217 80.50041636 6.39495644 78.49954746 6.4375 76.5 C4.37472893 76.64194764 2.31228969 76.78872216 0.25 76.9375 C-0.89855469 77.01871094 -2.04710938 77.09992188 -3.23046875 77.18359375 C-6.07848171 77.45403812 -8.77460482 77.87521747 -11.5625 78.5 C-11.66046875 79.66917969 -11.7584375 80.83835937 -11.859375 82.04296875 C-12.00950982 83.59123404 -12.16060205 85.1394067 -12.3125 86.6875 C-12.374375 87.45642578 -12.43625 88.22535156 -12.5 89.01757812 C-13.0012036 93.88342972 -13.68329137 97.15218981 -17.5625 100.5 C-20.359375 100.98828125 -20.359375 100.98828125 -23.3125 100.8125 C-24.29734375 100.76738281 -25.2821875 100.72226562 -26.296875 100.67578125 C-27.04453125 100.61777344 -27.7921875 100.55976563 -28.5625 100.5 C-28.90186847 93.15958563 -28.55403886 86.20584207 -27.1875 79 C-27.06141357 78.33033203 -26.93532715 77.66066406 -26.80541992 76.97070312 C-26.25392299 74.23764533 -25.64209929 71.68762827 -24.55151367 69.11694336 C-23.50902876 66.35851439 -23.15150909 64.02877015 -22.88671875 61.09765625 C-22.78367432 60.05327393 -22.68062988 59.0088916 -22.57446289 57.93286133 C-22.46739014 56.82064209 -22.36031738 55.70842285 -22.25 54.5625 C-21.03874567 43.10722027 -19.0133474 32.09446542 -16.17675781 20.9375 C-15.58754553 18.59938575 -15.03547867 16.255396 -14.4921875 13.90625 C-14.16296724 12.54130184 -13.83233984 11.17669195 -13.5 9.8125 C-13.22027344 8.65363281 -12.94054688 7.49476563 -12.65234375 6.30078125 C-10.23296341 0.08323393 -6.23027426 0.0487216 0 0 Z " fill="#D3CFD4" transform="translate(67.5625,388.5)"/>
<path d="M0 0 C2.12438339 -0.08078641 4.2496323 -0.13909141 6.375 -0.1875 C7.55835938 -0.22230469 8.74171875 -0.25710938 9.9609375 -0.29296875 C11.46527344 -0.14794922 11.46527344 -0.14794922 13 0 C18.0931323 7.63969846 14.65370012 21.46038351 14 30.25 C13.90325487 31.5924198 13.80689859 32.93486768 13.7109375 34.27734375 C13.47776044 37.51850494 13.23941892 40.75929391 13 44 C18.28 44 23.56 44 29 44 C28.99476318 42.70263916 28.98952637 41.40527832 28.98413086 40.06860352 C28.96608531 35.27352585 28.95456963 30.4784512 28.94506836 25.68334961 C28.94002712 23.60456844 28.93319426 21.52579084 28.92456055 19.44702148 C28.91248578 16.46597414 28.90676976 13.48497351 28.90234375 10.50390625 C28.89460182 9.10078941 28.89460182 9.10078941 28.88670349 7.66932678 C28.88662796 6.80850998 28.88655243 5.94769318 28.88647461 5.06079102 C28.884254 4.29912125 28.88203339 3.53745148 28.87974548 2.75270081 C29 1 29 1 30 0 C32.16480797 -0.0989294 34.33293785 -0.129711 36.5 -0.125 C37.6859375 -0.12757813 38.871875 -0.13015625 40.09375 -0.1328125 C43 0 43 0 44 1 C44.10055302 3.85027081 44.13615537 6.67634509 44.12939453 9.52709961 C44.13114685 10.42136154 44.13289917 11.31562347 44.13470459 12.23698425 C44.13912493 15.20879019 44.13618423 18.18053715 44.1328125 21.15234375 C44.13348555 23.20878613 44.13445558 25.26522843 44.13571167 27.32167053 C44.13718894 31.63852697 44.13503338 35.95536276 44.13037109 40.2722168 C44.12467736 45.81536728 44.12795038 51.35846931 44.13394356 56.901618 C44.13755143 61.15056221 44.13640947 65.39949486 44.13381577 69.64843941 C44.13314694 71.69265308 44.13397338 73.73686778 44.13629532 75.78108025 C44.13882515 78.63525049 44.13497637 81.48934154 44.12939453 84.34350586 C44.13141876 85.19501221 44.13344299 86.04651855 44.13552856 86.92382812 C44.11426316 92.77147369 44.11426316 92.77147369 43 95 C41.04196493 95.05389087 39.08351091 95.09274217 37.125 95.125 C35.48917969 95.15980469 35.48917969 95.15980469 33.8203125 95.1953125 C31 95 31 95 29 93 C28.82467711 90.13111419 28.76862386 87.36007355 28.8046875 84.4921875 C28.8075174 83.65156769 28.81034729 82.81094788 28.81326294 81.94485474 C28.8244757 79.25475954 28.84958197 76.5649949 28.875 73.875 C28.8850284 72.05339022 28.89415449 70.23177523 28.90234375 68.41015625 C28.92271878 63.93987375 28.96186467 59.47030774 29 55 C23.39 55 17.78 55 12 55 C12.02320313 57.55234375 12.04640625 60.1046875 12.0703125 62.734375 C12.08591588 65.20995588 12.09805671 67.68553126 12.10986328 70.16113281 C12.1199127 71.87990781 12.13355445 73.59866575 12.15087891 75.31738281 C12.17517391 77.78975641 12.18649368 80.26190369 12.1953125 82.734375 C12.20563507 83.50118591 12.21595764 84.26799683 12.22659302 85.05804443 C12.22739012 88.85956767 12.14509572 91.77864518 10 95 C8.04196493 95.05389087 6.08351091 95.09274217 4.125 95.125 C2.48917969 95.15980469 2.48917969 95.15980469 0.8203125 95.1953125 C-2 95 -2 95 -4 93 C-4.25878906 90.83178711 -4.25878906 90.83178711 -4.265625 88.02734375 C-4.26965332 86.92696777 -4.27368164 85.8265918 -4.27783203 84.69287109 C-4.26864746 83.45359863 -4.25946289 82.21432617 -4.25 80.9375 C-4.24468262 79.63377441 -4.23936523 78.33004883 -4.23388672 76.98681641 C-4.1342944 63.2466117 -3.69656051 49.50989423 -3.25134277 35.77737427 C-3.16713537 33.17644343 -3.08550964 30.57542772 -3.00646973 27.97433472 C-2.8917587 24.27154412 -2.76424625 20.56941794 -2.6328125 16.8671875 C-2.59936737 15.74440903 -2.56592224 14.62163055 -2.53146362 13.46482849 C-2.49159332 12.42310989 -2.45172302 11.3813913 -2.41064453 10.30810547 C-2.37955597 9.400112 -2.34846741 8.49211853 -2.31643677 7.55661011 C-1.97124104 4.76764565 -1.14793224 2.55456001 0 0 Z " fill="#D3D0D4" transform="translate(174,391)"/>
<path d="M0 0 C1.85546875 0.05078125 1.85546875 0.05078125 4.1875 0.3125 C4.94417969 0.39113281 5.70085937 0.46976562 6.48046875 0.55078125 C9.44208689 1.07882169 12.16808887 1.99592152 15 3 C15.03440186 3.59611084 15.06880371 4.19222168 15.10424805 4.80639648 C16.03198683 19.9163127 18.19486985 34.38902847 21.39941406 49.17529297 C22.27460092 53.29151734 23.05187897 57.42381284 23.8125 61.5625 C24.04582031 62.82191406 24.27914063 64.08132813 24.51953125 65.37890625 C24.67808594 66.24386719 24.83664062 67.10882813 25 68 C25.66 68 26.32 68 27 68 C27.08040527 67.410979 27.16081055 66.82195801 27.24365234 66.21508789 C27.61692475 63.49701515 27.99593079 60.77977012 28.375 58.0625 C28.56449219 56.67321289 28.56449219 56.67321289 28.7578125 55.25585938 C28.88671875 54.33740234 29.015625 53.41894531 29.1484375 52.47265625 C29.26364746 51.64000244 29.37885742 50.80734863 29.49755859 49.94946289 C29.91379686 47.50603506 30.41758886 45.12967139 30.97485352 42.71655273 C31.99887988 38.18823406 32.67276572 33.66598001 33.25390625 29.0625 C33.35968491 28.25635254 33.46546356 27.45020508 33.57444763 26.61962891 C34.02174685 23.21024752 34.45967961 19.7996809 34.89819336 16.38916016 C35.22167855 13.88398119 35.55013045 11.37948917 35.87890625 8.875 C35.97683975 8.09906494 36.07477325 7.32312988 36.17567444 6.52368164 C36.88713425 1.11286575 36.88713425 1.11286575 38 0 C40.31074168 -0.09932392 42.62462942 -0.12969618 44.9375 -0.125 C46.20464844 -0.12757813 47.47179687 -0.13015625 48.77734375 -0.1328125 C52 0 52 0 54 1 C54.29023033 9.48117525 53.55180818 17.08594076 50.9921875 25.19140625 C49.6096514 30.49838536 49.24025763 35.78438701 48.7890625 41.23632812 C48.71429688 42.04908203 48.63953125 42.86183594 48.5625 43.69921875 C48.50191406 44.42971436 48.44132812 45.16020996 48.37890625 45.9128418 C48 48 48 48 47.04101562 49.8059082 C45.57812501 52.88916289 45.23437701 56.05846187 44.78125 59.40625 C44.67784302 60.12679565 44.57443604 60.84734131 44.46789551 61.58972168 C44.13871097 63.8922737 43.8190055 66.19601779 43.5 68.5 C43.0753072 71.51075714 42.64727142 74.52103561 42.21875 77.53125 C42.11546387 78.25812012 42.01217773 78.98499023 41.90576172 79.73388672 C39.34570312 97.65429688 39.34570312 97.65429688 38 99 C34.52791193 99.25098924 31.0425938 99.18522096 27.5625 99.1875 C26.09200195 99.20586914 26.09200195 99.20586914 24.59179688 99.22460938 C23.65529297 99.22654297 22.71878906 99.22847656 21.75390625 99.23046875 C20.89095947 99.23457764 20.0280127 99.23868652 19.13891602 99.24291992 C17 99 17 99 15 97 C14.59098334 95.07705363 14.26894934 93.13498135 14 91.1875 C13.40595784 86.8737771 13.40595784 86.8737771 12.06616211 82.75854492 C10.80013369 79.48287397 10.09788852 76.2581593 9.37890625 72.8203125 C9.23347885 72.13049286 9.08805145 71.44067322 8.93821716 70.72994995 C8.47541136 68.52916278 8.01893595 66.32711602 7.5625 64.125 C7.26016429 62.68481209 6.9574331 61.24470713 6.65429688 59.8046875 C5.90532234 56.23858191 5.16710015 52.67036028 4.43359375 49.1010437 C4.00403717 47.01956273 3.5677232 44.93957702 3.13085938 42.85961914 C1.83589384 36.63158738 0.65650248 30.55093756 0.375 24.1875 C0.30068608 19.93261403 0.30068608 19.93261403 -1 16 C-1.09773002 13.4676428 -1.13910387 10.96914408 -1.125 8.4375 C-1.12886719 7.73947266 -1.13273437 7.04144531 -1.13671875 6.32226562 C-1.12663994 1.12663994 -1.12663994 1.12663994 0 0 Z " fill="#D3D0D4" transform="translate(324,389)"/>
<path d="M0 0 C1.72974441 0.00015918 3.45949355 0.0058569 5.18920898 0.01586914 C6.09783188 0.01728409 7.00645477 0.01869904 7.94261169 0.02015686 C10.85687494 0.02577346 13.77106254 0.03832874 16.68530273 0.05102539 C18.65600475 0.05603825 20.62670797 0.06060153 22.59741211 0.06469727 C27.43923832 0.07574828 32.28100768 0.09302401 37.12280273 0.11352539 C37.20358915 2.23790878 37.26189414 4.36315769 37.31030273 6.48852539 C37.36250977 8.26356445 37.36250977 8.26356445 37.41577148 10.07446289 C37.3190918 11.07735352 37.22241211 12.08024414 37.12280273 13.11352539 C33.83532857 15.30517483 32.63785449 15.40031926 28.79858398 15.52758789 C27.87215088 15.56319824 26.94571777 15.59880859 25.99121094 15.63549805 C24.81776123 15.66949707 23.64431152 15.70349609 22.43530273 15.73852539 C18.70217773 15.86227539 14.96905273 15.98602539 11.12280273 16.11352539 C10.79280273 25.02352539 10.46280273 33.93352539 10.12280273 43.11352539 C15.95672962 43.03446795 15.95672962 43.03446795 21.7902832 42.93334961 C22.51618652 42.92835449 23.24208984 42.92335938 23.98999023 42.91821289 C24.73361816 42.90773926 25.47724609 42.89726562 26.2434082 42.88647461 C28.12280273 43.11352539 28.12280273 43.11352539 30.12280273 45.11352539 C30.40063817 49.12546905 30.20845223 53.08799901 30.12280273 57.11352539 C23.85280273 57.11352539 17.58280273 57.11352539 11.12280273 57.11352539 C11.12280273 66.35352539 11.12280273 75.59352539 11.12280273 85.11352539 C19.70280273 85.11352539 28.28280273 85.11352539 37.12280273 85.11352539 C38.99684319 89.79862653 39.3143807 92.22828728 39.12280273 97.11352539 C36.84469635 98.25257858 35.58583904 98.24019529 33.05615234 98.24291992 C32.21865952 98.24607208 31.38116669 98.24922424 30.51829529 98.25247192 C29.61305618 98.25044769 28.70781708 98.24842346 27.77514648 98.24633789 C26.84811417 98.24729462 25.92108185 98.24825134 24.96595764 98.24923706 C23.00481092 98.24991815 21.04366194 98.24806879 19.08251953 98.24389648 C16.06920347 98.23854121 13.05603605 98.24384697 10.04272461 98.25024414 C8.14103157 98.24958347 6.23933862 98.24830252 4.33764648 98.24633789 C3.43038315 98.24836212 2.52311981 98.25038635 1.58836365 98.25247192 C-4.76224349 98.22847917 -4.76224349 98.22847917 -5.87719727 97.11352539 C-5.96617983 94.99771385 -5.98405316 92.87889233 -5.97485352 90.76123047 C-5.97339325 90.09772583 -5.97193298 89.43422119 -5.97042847 88.75061035 C-5.96661322 87.30462214 -5.96048703 85.85863865 -5.95236206 84.41266823 C-5.93963358 82.12159417 -5.93309106 79.83057784 -5.92822266 77.53947449 C-5.91482532 71.84395389 -5.89071764 66.14848745 -5.86682129 60.45300293 C-5.84705447 55.65014133 -5.83142262 50.84730062 -5.82125854 46.0444088 C-5.81479515 43.79216667 -5.80228205 41.54001015 -5.78955078 39.28779602 C-5.78591529 37.89612909 -5.78256393 36.50446137 -5.77954102 35.11279297 C-5.7743042 33.90335526 -5.76906738 32.69391754 -5.76367188 31.4478302 C-5.87284224 28.24143494 -6.30753721 25.26573285 -6.87719727 22.11352539 C-6.99196254 19.61537904 -7.05199021 17.11427423 -7.06469727 14.61352539 C-7.07887695 13.34508789 -7.09305664 12.07665039 -7.10766602 10.76977539 C-6.44068928 0.18858513 -6.44068928 0.18858513 0 0 Z " fill="#D3D0D4" transform="translate(398.877197265625,388.886474609375)"/>
<path d="M0 0 C0 0.66 0 1.32 0 2 C0.5775 2.2475 1.155 2.495 1.75 2.75 C4.34908658 4.19393699 6.07836838 5.73521987 8 8 C8 8.99 8 9.98 8 11 C8.66 11 9.32 11 10 11 C11.26237731 13.52475462 11.09856404 15.31200466 11.0625 18.125 C11.05347656 19.03507812 11.04445313 19.94515625 11.03515625 20.8828125 C11.02355469 21.58148438 11.01195312 22.28015625 11 23 C-0.6 26.2 -0.6 26.2 -5 24 C-5.630046 22.35042503 -6.20594219 20.67989781 -6.75 19 C-7.7093647 16.28921383 -7.7093647 16.28921383 -9 14 C-12.02323485 12.68849868 -12.02323485 12.68849868 -15 13 C-15.66 13 -16.32 13 -17 13 C-19.17470105 21.15512894 -18.71606925 28.29092445 -14.61328125 35.6875 C-11.9573735 39.49451547 -8.64616726 42.17607378 -5 45 C2.09882612 50.68705207 8.26476305 57.09781679 11 66 C11.13760722 68.80993945 11.19011573 71.51001924 11.125 74.3125 C11.11597656 75.05306641 11.10695313 75.79363281 11.09765625 76.55664062 C11.07424213 78.37123467 11.03837615 80.18566071 11 82 C10.01 82 9.02 82 8 82 C7.9175 82.86625 7.835 83.7325 7.75 84.625 C6.07986824 92.14059294 1.12338257 95.91774496 -5 100 C-8.3984375 100.30078125 -8.3984375 100.30078125 -12.375 100.3125 C-13.68210937 100.32925781 -14.98921875 100.34601563 -16.3359375 100.36328125 C-20.11392589 99.98870458 -22.04663273 99.34330878 -25 97 C-25 96.34 -25 95.68 -25 95 C-25.58394531 94.93683594 -26.16789063 94.87367188 -26.76953125 94.80859375 C-29.92086908 93.6661648 -30.85839706 91.82797668 -32.6875 89.0625 C-33.28949219 88.16660156 -33.89148438 87.27070313 -34.51171875 86.34765625 C-37.62768061 81.43245133 -37.07435475 77.79967047 -37 72 C-32.38 72 -27.76 72 -23 72 C-21.14453125 75.80859375 -21.14453125 75.80859375 -19.2890625 79.6171875 C-18.09497301 82.09534472 -18.09497301 82.09534472 -16 84 C-13.79749008 84.46006346 -13.79749008 84.46006346 -11.375 84.625 C-10.55773437 84.69976562 -9.74046875 84.77453125 -8.8984375 84.8515625 C-7.95871094 84.92503906 -7.95871094 84.92503906 -7 85 C-6.855625 84.360625 -6.71125 83.72125 -6.5625 83.0625 C-6 81 -6 81 -5 80 C-4.90061137 78.23146708 -4.87030777 76.45881725 -4.875 74.6875 C-4.87242187 73.72199219 -4.86984375 72.75648438 -4.8671875 71.76171875 C-4.98371833 69.33856295 -5.30758352 67.31355031 -6 65 C-6.66 65 -7.32 65 -8 65 C-8.37769531 64.3296875 -8.75539063 63.659375 -9.14453125 62.96875 C-11.72995999 58.83206401 -15.16522187 55.84377208 -18.6875 52.5 C-28.1231508 43.31418804 -35.78474037 34.35589098 -36.4375 20.6875 C-36.38741025 14.48471939 -34.16162539 11.38171135 -30 7 C-29.278125 6.0925 -28.55625 5.185 -27.8125 4.25 C-19.38717994 -2.49025605 -9.94792656 -3.24830255 0 0 Z " fill="#D3CFD4" transform="translate(554,389)"/>
<path d="M0 0 C5.43423272 4.22662545 9.77004407 11.14364992 11 18 C11.09021304 19.72731441 11.13010978 21.45783895 11.125 23.1875 C11.12886719 24.50814453 11.12886719 24.50814453 11.1328125 25.85546875 C11 28 11 28 10 29 C7.83519203 29.0989294 5.66706215 29.129711 3.5 29.125 C2.3140625 29.12757813 1.128125 29.13015625 -0.09375 29.1328125 C-3 29 -3 29 -4 28 C-4.28549649 24.96376745 -4.44868814 21.92742215 -4.62109375 18.8828125 C-4.80950152 15.80741166 -4.80950152 15.80741166 -7 13 C-10.15706383 12.54171654 -11.9944264 12.308241 -15 13 C-20.58733401 18.1462287 -20.72636997 26.83925493 -21.10900879 34.05593872 C-21.24677295 38.49908843 -21.242309 42.94025622 -21.20581055 47.38500977 C-21.18744086 49.69493612 -21.18530256 52.00446086 -21.18554688 54.31445312 C-21.1668628 61.93112382 -20.94323392 69.43149099 -20 77 C-18.515 77.495 -18.515 77.495 -17 78 C-17 78.66 -17 79.32 -17 80 C-13.535 79.505 -13.535 79.505 -10 79 C-9.79890625 77.98679687 -9.79890625 77.98679687 -9.59375 76.953125 C-8.90934784 73.5491248 -8.21099466 70.14855446 -7.5 66.75 C-7.2421875 65.50734375 -6.984375 64.2646875 -6.71875 62.984375 C-6 60 -6 60 -5 59 C-3.02287193 58.90099801 -1.04209962 58.87029227 0.9375 58.875 C2.55978516 58.87113281 2.55978516 58.87113281 4.21484375 58.8671875 C7 59 7 59 9 60 C9.52473591 73.66256828 8.48010154 80.87237443 -0.74609375 91.12890625 C-3 93 -3 93 -7 93 C-7 93.66 -7 94.32 -7 95 C-11.63064683 96.54354894 -16.16419953 96.49141419 -21 96 C-23.8125 94.5 -23.8125 94.5 -26 92 C-26.50144531 91.44054687 -27.00289062 90.88109375 -27.51953125 90.3046875 C-35.29895777 80.95423324 -36.01415193 69.32055452 -36.38671875 57.609375 C-36.41337616 56.83061508 -36.44003357 56.05185516 -36.46749878 55.24949646 C-37.91593588 10.64523949 -37.91593588 10.64523949 -31.4375 2.4375 C-22.03154159 -5.99894733 -10.72552868 -5.64110851 0 0 Z " fill="#D3D0D4" transform="translate(144,392)"/>
<path d="M0 0 C1.71936016 0.00079126 3.43884695 0.02902292 5.1574707 0.0793457 C6.0632637 0.08642044 6.9690567 0.09349518 7.90229797 0.1007843 C10.79678778 0.12878467 13.68934646 0.19153255 16.58325195 0.25512695 C18.54481257 0.28020257 20.50640349 0.30301703 22.46801758 0.32348633 C27.27800701 0.37862979 32.08655204 0.46494053 36.89575195 0.56762695 C36.89575195 4.85762695 36.89575195 9.14762695 36.89575195 13.56762695 C36.23575195 13.56762695 35.57575195 13.56762695 34.89575195 13.56762695 C34.89575195 14.22762695 34.89575195 14.88762695 34.89575195 15.56762695 C26.64575195 15.56762695 18.39575195 15.56762695 9.89575195 15.56762695 C9.56575195 24.80762695 9.23575195 34.04762695 8.89575195 43.56762695 C15.05877025 43.48855921 15.05877025 43.48855921 21.22143555 43.38745117 C22.37119873 43.3799585 22.37119873 43.3799585 23.54418945 43.37231445 C24.72247314 43.356604 24.72247314 43.356604 25.92456055 43.34057617 C27.89575195 43.56762695 27.89575195 43.56762695 29.89575195 45.56762695 C30.09106445 48.16918945 30.09106445 48.16918945 30.02075195 51.19262695 C30.00270508 52.19551758 29.9846582 53.1984082 29.96606445 54.23168945 C29.94286133 55.00254883 29.9196582 55.7734082 29.89575195 56.56762695 C26.59949899 58.21575343 22.9011672 57.95012027 19.27075195 58.13012695 C15.12512695 58.34668945 15.12512695 58.34668945 10.89575195 58.56762695 C10.56575195 67.47762695 10.23575195 76.38762695 9.89575195 85.56762695 C18.73648058 85.52803294 18.73648058 85.52803294 27.57714844 85.47753906 C29.21792358 85.47379272 29.21792358 85.47379272 30.8918457 85.4699707 C32.01776123 85.46473389 33.14367676 85.45949707 34.30371094 85.45410156 C36.89575195 85.56762695 36.89575195 85.56762695 37.89575195 86.56762695 C38.02030055 88.2099306 38.0714372 89.85814972 38.08325195 91.50512695 C38.09743164 92.40102539 38.11161133 93.29692383 38.1262207 94.2199707 C37.89575195 96.56762695 37.89575195 96.56762695 35.89575195 98.56762695 C32.81050257 98.74316115 29.81610994 98.79885492 26.73168945 98.76293945 C25.37087753 98.75869461 25.37087753 98.75869461 23.98257446 98.75436401 C21.07850072 98.74314848 18.17473283 98.71804158 15.27075195 98.69262695 C13.30461057 98.68259892 11.33846436 98.67347276 9.37231445 98.6652832 C4.54667536 98.64320467 -0.27873445 98.6086656 -5.10424805 98.56762695 C-6.49483167 95.7864597 -6.21618257 93.53296615 -6.2019043 90.42138672 C-6.19860107 89.12987198 -6.19529785 87.83835724 -6.19189453 86.50770569 C-6.18571609 85.46940455 -6.18571609 85.46940455 -6.17941284 84.41012764 C-6.16667023 82.24581543 -6.1601389 80.08156438 -6.15527344 77.91722107 C-6.14188763 72.54097345 -6.11769533 67.16478386 -6.09387207 61.78857422 C-6.07415638 57.24779019 -6.05850827 52.70702776 -6.04830933 48.16621208 C-6.04182074 46.03293369 -6.02931158 43.89974385 -6.01660156 41.76649475 C-6.01329834 40.47182785 -6.00999512 39.17716095 -6.0065918 37.84326172 C-6.00135498 36.70123795 -5.99611816 35.55921417 -5.99072266 34.38258362 C-5.97700437 31.4864543 -5.97700437 31.4864543 -7.10424805 28.56762695 C-7.36146355 24.78032352 -7.33559883 20.9877421 -7.35424805 17.19262695 C-7.37487305 16.15106445 -7.39549805 15.10950195 -7.41674805 14.03637695 C-7.4219043 13.02833008 -7.42706055 12.0202832 -7.43237305 10.98168945 C-7.44171875 10.06339355 -7.45106445 9.14509766 -7.46069336 8.19897461 C-6.75274092 2.97273395 -5.42396316 0.34257696 0 0 Z " fill="#D3D1D4" transform="translate(270.104248046875,388.432373046875)"/>
<path d="M0 0 C38.28 0 76.56 0 116 0 C116 0.66 116 1.32 116 2 C110.375 5 110.375 5 107 5 C107.14148989 6.6045556 107.28835686 8.20863767 107.4375 9.8125 C107.51871094 10.70582031 107.59992188 11.59914063 107.68359375 12.51953125 C107.93489767 15.12743559 107.93489767 15.12743559 109 18 C110.98 18.33 112.96 18.66 115 19 C115.495 20.485 115.495 20.485 116 22 C77.39 22 38.78 22 -1 22 C-1 21.01 -1 20.02 -1 19 C-0.43410156 18.87882812 0.13179688 18.75765625 0.71484375 18.6328125 C1.44832031 18.46523438 2.18179687 18.29765625 2.9375 18.125 C3.66839844 17.96257812 4.39929688 17.80015625 5.15234375 17.6328125 C7.20700294 17.17038477 7.20700294 17.17038477 8 15 C8.2737932 12.66301325 8.2737932 12.66301325 8.3125 10.0625 C8.36857422 8.74958984 8.36857422 8.74958984 8.42578125 7.41015625 C8.2238987 4.8800969 8.2238987 4.8800969 6.23046875 3.30859375 C4.20227101 2.11867038 2.10323631 1.05161815 0 0 Z " fill="#D3D3D4" transform="translate(291,327)"/>
<path d="M0 0 C0.7530542 -0.03432129 1.5061084 -0.06864258 2.28198242 -0.10400391 C6.06408327 -0.13448716 7.71059153 0.11287557 10.53125 2.71484375 C11.95418234 5.24490457 12.63074889 6.58604986 12.625 9.4375 C12.64691406 10.076875 12.66882813 10.71625 12.69140625 11.375 C11.61103571 14.91807854 10.04259347 16.23641987 7.0625 18.4375 C3.35399134 19.38298514 -0.37804688 19.60150514 -4.1875 19.875 C-6.62176326 20.09694206 -9.05532828 20.3266277 -11.48828125 20.5625 C-12.47472374 20.65663429 -12.47472374 20.65663429 -13.48109436 20.75267029 C-22.48780081 21.6426227 -31.42667344 23.03402084 -40.375 24.375 C-42.1462095 24.63839032 -43.91744969 24.90157443 -45.6887207 25.16455078 C-49.14818411 25.67877721 -52.60737418 26.19479482 -56.06640625 26.71191406 C-62.99944172 27.74675149 -69.93639096 28.75323895 -76.875 29.75 C-77.96804443 29.90911865 -79.06108887 30.0682373 -80.18725586 30.23217773 C-86.42597645 31.12778928 -92.66025516 31.87000161 -98.9375 32.4375 C-98.56665039 30.50292969 -98.56665039 30.50292969 -97.9375 28.4375 C-95.04097822 26.97007498 -92.08101383 26.32299685 -88.9375 25.4375 C-88.6075 21.8075 -88.2775 18.1775 -87.9375 14.4375 C-88.5975 14.4375 -89.2575 14.4375 -89.9375 14.4375 C-90.2675 13.7775 -90.5975 13.1175 -90.9375 12.4375 C-93.06326782 11.97098793 -93.06326782 11.97098793 -95.5 11.8125 C-96.32628906 11.73773438 -97.15257812 11.66296875 -98.00390625 11.5859375 C-98.64199219 11.53695313 -99.28007812 11.48796875 -99.9375 11.4375 C-99.9375 10.1175 -99.9375 8.7975 -99.9375 7.4375 C-93.02033146 6.4745531 -86.15728733 6.11180796 -79.18359375 5.83203125 C-78.33667969 5.79464844 -77.48976563 5.75726563 -76.6171875 5.71875 C-75.86163574 5.68845703 -75.10608398 5.65816406 -74.32763672 5.62695312 C-71.86023982 5.46905551 -71.86023982 5.46905551 -69.14575195 4.94897461 C-65.4094764 4.35331999 -61.69930322 4.14208476 -57.92578125 3.97265625 C-56.35651821 3.89519111 -54.78726396 3.81754784 -53.21801758 3.73974609 C-52.40587799 3.70065125 -51.5937384 3.6615564 -50.75698853 3.62127686 C-34.47287903 2.86159924 -34.47287903 2.86159924 -18.25 1.3125 C-12.1682726 0.60060141 -6.12362356 0.14336447 0 0 Z " fill="#D3D1D4" transform="translate(376.9375,275.5625)"/>
<path d="M0 0 C2.13301204 4.37828788 2.40214519 8.52866131 2.5625 13.3125 C2.59786865 14.18986816 2.6332373 15.06723633 2.66967773 15.97119141 C2.79556839 19.31376744 2.89964046 22.65655651 3 26 C3.02191406 26.7229425 3.04382813 27.44588501 3.06640625 28.19073486 C3.58267606 45.35087998 4.06057269 62.51951133 4.1875 79.6875 C4.20047119 80.58774902 4.21344238 81.48799805 4.22680664 82.41552734 C4.2331905 86.72335246 4.06942067 90.09964208 2 94 C0.26150372 95.73849628 -2.0786637 95.17216296 -4.4375 95.1875 C-5.42621094 95.20167969 -6.41492188 95.21585937 -7.43359375 95.23046875 C-10 95 -10 95 -12 93 C-12.18824486 90.10777447 -12.25170246 87.3120186 -12.22705078 84.41943359 C-12.22734283 83.53156662 -12.22763489 82.64369965 -12.22793579 81.72892761 C-12.22653907 78.78533253 -12.21096184 75.84198853 -12.1953125 72.8984375 C-12.19158358 70.86105487 -12.18873604 68.82367046 -12.18673706 66.7862854 C-12.17909104 61.41698275 -12.15943425 56.04778784 -12.1373291 50.67852783 C-12.11689151 45.20236672 -12.10773982 39.72618824 -12.09765625 34.25 C-12.07618926 23.49995259 -12.04204166 12.74998525 -12 2 C-7.78004004 0.49878175 -4.49551832 -0.2140723 0 0 Z " fill="#D3CED4" transform="translate(245,391)"/>
<path d="M0 0 C2.80603976 3.46628441 2.64672909 5.84321467 2.59375 10.1875 C1.98632539 13.34610797 1.5519233 14.45111439 -0.875 16.625 C-4.19223203 17.23572409 -7.49066606 17.12891613 -10.85424805 17.07910156 C-11.87881104 17.07968567 -12.90337402 17.08026978 -13.95898438 17.08087158 C-17.3519049 17.07808066 -20.74395134 17.0469401 -24.13671875 17.015625 C-26.48655212 17.00816622 -28.83639171 17.00247158 -31.18623352 16.99847412 C-37.37599817 16.98318933 -43.56538836 16.94388256 -49.75500488 16.8996582 C-56.06904026 16.85876708 -62.38313605 16.84047625 -68.69726562 16.8203125 C-81.09000842 16.77739143 -93.48247309 16.70910538 -105.875 16.625 C-103.34740167 14.09740167 -102.07924497 14.1970052 -98.5625 13.75 C-92.58131101 12.91250165 -86.67656594 11.8484017 -80.75 10.6875 C-69.57022755 8.51776471 -58.34771581 6.72551325 -47.08203125 5.06640625 C-45.96183594 4.90011719 -44.84164062 4.73382813 -43.6875 4.5625 C-42.74519531 4.42714844 -41.80289063 4.29179687 -40.83203125 4.15234375 C-37.73271366 3.6385802 -37.73271366 3.6385802 -34.17578125 2.66796875 C-29.25341701 1.40541997 -24.27844774 0.69998278 -19.25 0 C-18.33476562 -0.1340625 -17.41953125 -0.268125 -16.4765625 -0.40625 C-4.4196277 -2.11373499 -4.4196277 -2.11373499 0 0 Z " fill="#D3D0D4" transform="translate(403.875,307.375)"/>
<path d="M0 0 C1 1 1 1 1.09765625 2.84765625 C1.06510417 4.8984375 1.03255208 6.94921875 1 9 C-10.5901454 11.41517582 -22.20846166 13.6093706 -33.875 15.625 C-35.0611792 15.83084717 -36.2473584 16.03669434 -37.46948242 16.2487793 C-44.57450957 17.46454699 -51.68534222 18.54760978 -58.82983398 19.50561523 C-61.9993903 19.99990492 -65.07294495 20.67348789 -68.1875 21.4375 C-73.75915238 22.78403991 -79.34258739 23.78776302 -85 24.6875 C-85.81364014 24.81890381 -86.62728027 24.95030762 -87.46557617 25.08569336 C-91.34674373 25.68686453 -95.0584612 26.16687967 -99 26 C-98.7525 24.4221875 -98.7525 24.4221875 -98.5 22.8125 C-98.10292571 19.78480851 -97.95805953 17.03544116 -98 14 C-87.33977053 11.50875072 -77.08093522 9.56233138 -66.125 9.17578125 C-62.96867251 9.13536276 -62.96867251 9.13536276 -60 8 C-58.16875772 7.84739648 -56.33479015 7.7263963 -54.5 7.625 C-50.37210587 7.3135541 -46.65246023 6.74544916 -42.6875 5.5625 C-32.58562546 2.58281039 -21.98411792 1.87727156 -11.51171875 1.24609375 C-7.46066856 0.84917903 -4.29366082 -0.15613312 0 0 Z " fill="#D3D1D4" transform="translate(392,295)"/>
<path d="M0 0 C2.86473146 2.37941224 2.86951563 2.9616094 3.4375 6.9375 C3.12117253 10.48440589 2.19912131 13.68969673 0.875 17 C1.6175 16.4225 2.36 15.845 3.125 15.25 C11.56788955 9.71367899 21.91277115 7.34608911 31.875 9 C35.30402902 10.49545388 37.94469579 12.70083823 40.875 15 C43.51807424 16.7860903 46.19889838 18.51389557 48.875 20.25 C55.72180568 24.69361136 55.72180568 24.69361136 56.875 27 C56.215 27 55.555 27 54.875 27 C54.875 27.66 54.875 28.32 54.875 29 C51.86331152 29.59204133 48.94989727 30.04804527 45.875 30 C43.625 28.1875 43.625 28.1875 41.875 26 C37.73844733 23.83037437 34.18163615 23.78866101 29.5625 23.875 C28.30824219 23.89304688 27.05398438 23.91109375 25.76171875 23.9296875 C24.33279297 23.96449219 24.33279297 23.96449219 22.875 24 C22.875 24.66 22.875 25.32 22.875 26 C18.97657993 27.29947336 14.93423148 27.46461083 10.875 27 C8.3125 25.6875 8.3125 25.6875 5.875 24 C4.67875 23.5875 3.4825 23.175 2.25 22.75 C-2.10262439 20.49308365 -2.29093396 18.43232625 -4.125 14 C-10.19298603 8.20783151 -18.26343124 6.37769454 -26.125 4 C-25.795 3.01 -25.465 2.02 -25.125 1 C-17.57730282 -2.32865774 -7.42837394 -4.41525841 0 0 Z " fill="#D3CCD5" transform="translate(246.125,199)"/>
<path d="M0 0 C-0.66 0.33 -1.32 0.66 -2 1 C-1.7525 2.0209375 -1.7525 2.0209375 -1.5 3.0625 C-0.92923028 6.41577212 -0.96799885 9.60387785 -1 13 C-16.3684058 14.36350179 -31.56895199 15.31349759 -47 15 C-46.15674966 10.35818269 -45.3448105 7.50038308 -42 4 C-38.04518609 2.83884824 -34.0906412 2.41864762 -30 2 C-28.35837891 1.74863281 -28.35837891 1.74863281 -26.68359375 1.4921875 C-22.41368237 0.92165851 -18.17484227 0.65498788 -13.875 0.4375 C-13.08996094 0.39431641 -12.30492187 0.35113281 -11.49609375 0.30664062 C-7.65954556 0.10284422 -3.8435281 -0.0540255 0 0 Z " fill="#D3CED4" transform="translate(376,261)"/>
<path d="M0 0 C0 0.66 0 1.32 0 2 C0.66 2 1.32 2 2 2 C2 3.32 2 4.64 2 6 C2.99 6.33 3.98 6.66 5 7 C5 7.99 5 8.98 5 10 C-4.13204942 11.67809133 -12.91187259 12.28460023 -22.1875 12.1875 C-24.00604492 12.1865332 -24.00604492 12.1865332 -25.86132812 12.18554688 C-34.71801772 12.14099114 -34.71801772 12.14099114 -37 11 C-37.25 8.1875 -37.25 8.1875 -37 5 C-29.48866568 -2.79230692 -10.11623701 -0.22536172 0 0 Z " fill="#D3CFD4" transform="translate(318,267)"/>
<path d="M0 0 C5.38422078 -0.27377394 8.54453408 -0.37535297 13 3 C15.23515491 5.23515491 14.279373 10.25090192 14.3125 13.25 C14.34150391 14.10980469 14.37050781 14.96960938 14.40039062 15.85546875 C14.44281283 20.09116306 14.39841967 22.36726384 12.09375 26.02734375 C7.76262633 30.10797333 4.90309738 30.07541704 -1 30 C-1.02934711 26.50001799 -1.04691445 23.00006821 -1.0625 19.5 C-1.07087891 18.51773437 -1.07925781 17.53546875 -1.08789062 16.5234375 C-1.10659124 10.91325243 -0.838879 5.54849101 0 0 Z " fill="#CB6FE5" transform="translate(471,403)"/>
<path d="M0 0 C1.4984428 0.14245759 2.99867822 0.26702823 4.5 0.375 C8.10111375 0.75468909 10.49863362 1.17236844 13 4 C13 4.99 13 5.98 13 7 C12.12859375 6.93039063 11.2571875 6.86078125 10.359375 6.7890625 C-3.16168966 6.17446865 -11.37723569 11.37890415 -21.8203125 19.4609375 C-24 21 -24 21 -26 21 C-26.33 19.02 -26.66 17.04 -27 15 C-27.33 18.96 -27.66 22.92 -28 27 C-27.34 27.33 -26.68 27.66 -26 28 C-26.99 28 -27.98 28 -29 28 C-29 23.05 -29 18.1 -29 13 C-30.32 13.33 -31.64 13.66 -33 14 C-30.66666667 11.66666667 -28.33333333 9.33333333 -26 7 C-25.01 7 -24.02 7 -23 7 C-23.45822468 10.46941546 -23.89131683 13.67395049 -25 17 C-24.01 17 -23.02 17 -22 17 C-22 14.69 -22 12.38 -22 10 C-21.34 10.66 -20.68 11.32 -20 12 C-19.26394531 11.31292969 -18.52789062 10.62585938 -17.76953125 9.91796875 C-16.78406429 9.00758499 -15.79837538 8.09744146 -14.8125 7.1875 C-13.36810547 5.84751953 -13.36810547 5.84751953 -11.89453125 4.48046875 C-4.68987166 -1.69356477 -4.68987166 -1.69356477 0 0 Z " fill="#D2BDD7" transform="translate(327,152)"/>
<path d="M0 0 C3.4688016 1.48662926 5.21605906 3.06855208 7.25 6.25 C9.72692458 12.50749368 9.44685077 18.58988226 9.25 25.25 C6.64225238 22.04678245 5.90210084 20.4247899 6.25 16.25 C5.59 16.25 4.93 16.25 4.25 16.25 C4.12625 15.198125 4.0025 14.14625 3.875 13.0625 C2.81500872 9.53158309 1.30193108 8.19267365 -1.875 6.375 C-9.76033927 2.97929032 -19.03055831 1.4701879 -27.19921875 4.55078125 C-30.24211608 6.27267171 -32.98347577 8.11510231 -35.75 10.25 C-36.48347656 10.81074219 -37.21695312 11.37148437 -37.97265625 11.94921875 C-40.71316507 14.18326804 -42.78337433 16.3000615 -44.75 19.25 C-45.74 19.25 -46.73 19.25 -47.75 19.25 C-47.75 14.63 -47.75 10.01 -47.75 5.25 C-45.75 7.25 -45.75 7.25 -45.625 10.375 C-45.66625 11.32375 -45.7075 12.2725 -45.75 13.25 C-45.21632813 12.88648438 -44.68265625 12.52296875 -44.1328125 12.1484375 C-38.45604756 8.31809437 -32.70735245 4.63120004 -26.75 1.25 C-25.81027344 0.70601562 -24.87054688 0.16203125 -23.90234375 -0.3984375 C-16.57929737 -3.53818229 -7.3761409 -2.7443583 0 0 Z " fill="#CE8FDF" transform="translate(346.75,159.75)"/>
<path d="M0 0 C0.495 0.99 0.495 0.99 1 2 C3.01669827 3.13350534 3.01669827 3.13350534 5 4 C-0.74597439 5.57244453 -6.26209584 6.4668348 -12.1875 7 C-25.52516375 8.19121585 -25.52516375 8.19121585 -38.5625 11.0625 C-42.81476713 12.22220922 -46.93929319 12.48099666 -51.328125 12.75390625 C-54.10057614 12.9069229 -54.10057614 12.9069229 -57 14 C-59.43969012 14.15590919 -61.87061759 14.27619551 -64.3125 14.375 C-71.11523434 14.7098154 -77.38663683 15.75182973 -84.01171875 17.37890625 C-86.78060358 17.95439996 -89.18449075 18.12014232 -92 18 C-92.33 18.66 -92.66 19.32 -93 20 C-93 19.01 -93 18.02 -93 17 C-91.35 16.67 -89.7 16.34 -88 16 C-88.99 15.34 -89.98 14.68 -91 14 C-89.83243164 13.83395264 -88.66486328 13.66790527 -87.46191406 13.49682617 C-83.02593337 12.86574942 -78.59009643 12.2336669 -74.15429688 11.60131836 C-72.25394381 11.3305468 -70.35355459 11.06002884 -68.453125 10.78979492 C-65.68218998 10.39572922 -62.91137589 10.00082695 -60.140625 9.60546875 C-59.21466522 9.47348587 -58.28870544 9.34150299 -57.33468628 9.20552063 C-51.90731619 8.42823693 -46.48567773 7.61996927 -41.06643677 6.7880249 C-30.99604933 5.24524189 -20.94042166 4.06465545 -10.796875 3.09570312 C-9.67539062 2.98033203 -8.55390625 2.86496094 -7.3984375 2.74609375 C-6.40505371 2.64997803 -5.41166992 2.5538623 -4.38818359 2.45483398 C-1.82342812 2.19831442 -1.82342812 2.19831442 0 0 Z " fill="#CE96DE" transform="translate(386,291)"/>
<path d="M0 0 C3.30448608 4.95672912 3.32088986 9.39010933 3.71875 15.1875 C3.90347198 18.0775174 3.90347198 18.0775174 5 21 C5.13399703 25.00383132 5.04308887 28.9927355 5 33 C1.04 33.66 -2.92 34.32 -7 35 C-6.40125963 28.11757202 -5.44650102 21.45315556 -4.0625 14.6875 C-3.89298828 13.82060547 -3.72347656 12.95371094 -3.54882812 12.06054688 C-2.70053377 7.85132965 -1.80482491 3.92529184 0 0 Z " fill="#CB75E4" transform="translate(66,418)"/>
<path d="M0 0 C0.33 0 0.66 0 1 0 C1 2.64 1 5.28 1 8 C2.65 8 4.3 8 6 8 C3.07353966 9.63158121 0.61329322 10.36057948 -2.703125 10.78125 C-3.60160156 10.90113281 -4.50007813 11.02101563 -5.42578125 11.14453125 C-6.35777344 11.26183594 -7.28976562 11.37914062 -8.25 11.5 C-14.64595069 12.31860972 -20.76132888 13.36906153 -27 15 C-28.8489454 15.32311667 -30.70350948 15.61585196 -32.5625 15.875 C-47.32277532 18.06170745 -62.0230839 20.67290473 -76.61743164 23.78076172 C-84.68589571 25.46130389 -84.68589571 25.46130389 -88 25 C-89.8125 23.5 -89.8125 23.5 -91 22 C-90.06800781 21.89042969 -89.13601563 21.78085937 -88.17578125 21.66796875 C-80.78315877 20.74856272 -73.66368537 19.53834034 -66.41967773 17.75854492 C-63.15253598 17.03383517 -59.93799623 16.52849326 -56.62109375 16.09375 C-51.37904204 15.36751857 -46.17810462 14.52928804 -40.9765625 13.5625 C-40.29362625 13.43572876 -39.61069 13.30895752 -38.90705872 13.17834473 C-36.11631363 12.65773161 -33.32639557 12.13286492 -30.53710938 11.60449219 C-20.39079087 9.68838799 -10.25989117 8.1684351 0 7 C0 4.69 0 2.38 0 0 Z " fill="#CD8BE0" transform="translate(393,297)"/>
<path d="M0 0 C0.33 0 0.66 0 1 0 C1.57236003 3.93231128 2.14194927 7.86501295 2.70898438 11.7980957 C2.90223474 13.13577083 3.09623922 14.47333724 3.29101562 15.81079102 C3.57099916 17.73424932 3.84803815 19.65813552 4.125 21.58203125 C4.29257812 22.73936768 4.46015625 23.8967041 4.6328125 25.08911133 C5 28 5 28 5 31 C5.680625 30.67 6.36125 30.34 7.0625 30 C10.50840238 28.82692685 13.38397422 28.85819507 17 29 C17 29.66 17 30.32 17 31 C11.35390599 33.06956471 5.7050313 35.0983229 0 37 C-1.299375 37.5878125 -1.299375 37.5878125 -2.625 38.1875 C-5.28171704 39.09637688 -6.4606194 39.17899814 -9 38 C-9.495 36.515 -9.495 36.515 -10 35 C-6.7 34.34 -3.4 33.68 0 33 C0 22.11 0 11.22 0 0 Z " fill="#CD85E1" transform="translate(322,187)"/>
<path d="M0 0 C2 2 2 2 2 5 C1.12859375 4.93039063 0.2571875 4.86078125 -0.640625 4.7890625 C-11.72007172 4.28545129 -19.31781892 7.21322465 -28 14 C-28.66 13.67 -29.32 13.34 -30 13 C-21.13828787 1.96999661 -14.49912736 -1.63638445 0 0 Z " fill="#D3CFD4" transform="translate(338,154)"/>
<path d="M0 0 C1.98 0.66 3.96 1.32 6 2 C6 2.66 6 3.32 6 4 C-32.61 4 -71.22 4 -111 4 C-110.67 3.01 -110.34 2.02 -110 1 C-110 1.66 -110 2.32 -110 3 C-55.055 2.505 -55.055 2.505 1 2 C0.505 1.01 0.505 1.01 0 0 Z " fill="#D1B6D9" transform="translate(401,345)"/>
<path d="M0 0 C5.94274131 6.61625199 5.24762466 14.62203235 5 23 C2.39225238 19.79678245 1.65210084 18.1747899 2 14 C1.34 14 0.68 14 0 14 C0.20625 13.0925 0.4125 12.185 0.625 11.25 C1.03178707 7.72451209 0.96151436 6.8433479 -1 4 C-3.44238998 2.46794483 -3.44238998 2.46794483 -6.3125 1.3125 C-7.25738281 0.89613281 -8.20226562 0.47976562 -9.17578125 0.05078125 C-11.79257598 -0.92282564 -14.25108296 -1.54435073 -17 -2 C-17 -2.33 -17 -2.66 -17 -3 C-10.94789351 -4.96284535 -5.43885688 -2.84323287 0 0 Z " fill="#CFA4DC" transform="translate(351,162)"/>
<path d="M0 0 C6.5335176 1.43674464 14.31433921 3.41911895 18.5 9 C19.08903512 11.35614046 18.80953142 12.73331203 18 15 C17.5875 14.113125 17.175 13.22625 16.75 12.3125 C12.83116185 6.47563895 5.06994365 4.67024788 -1.453125 3.24609375 C-4.29845215 2.76400633 -7.13459235 2.34039417 -10 2 C-6.18991922 -0.54005385 -4.54901828 -0.3610332 0 0 Z " fill="#CB77E4" transform="translate(334,159)"/>
<path d="M0 0 C0.65484375 0.23847656 1.3096875 0.47695312 1.984375 0.72265625 C3.56462505 0.9345772 5.14835961 1.12188996 6.734375 1.28515625 C7.53359375 1.36894531 8.3328125 1.45273438 9.15625 1.5390625 C10.06117188 1.62994141 10.06117188 1.62994141 10.984375 1.72265625 C10.984375 2.05265625 10.984375 2.38265625 10.984375 2.72265625 C10.22253906 2.73683594 9.46070313 2.75101563 8.67578125 2.765625 C1.12130124 3.1145835 -3.72030235 4.64846559 -10.015625 8.72265625 C-11.34057453 9.40583335 -12.67166696 10.07767639 -14.015625 10.72265625 C-14.015625 11.38265625 -14.015625 12.04265625 -14.015625 12.72265625 C-15.97710374 14.11203702 -17.97729076 15.44869735 -20.015625 16.72265625 C-20.015625 14.74265625 -20.015625 12.76265625 -20.015625 10.72265625 C-19.355625 11.38265625 -18.695625 12.04265625 -18.015625 12.72265625 C-17.27957031 12.03558594 -16.54351562 11.34851563 -15.78515625 10.640625 C-14.79968929 9.73024124 -13.81400038 8.82009771 -12.828125 7.91015625 C-11.86519531 7.01683594 -10.90226562 6.12351563 -9.91015625 5.203125 C-3.30741954 -0.45509067 -3.30741954 -0.45509067 0 0 Z " fill="#CFA0DC" transform="translate(325.015625,151.27734375)"/>
<path d="M0 0 C-0.33 0.66 -0.66 1.32 -1 2 C-3.42927796 2.64583243 -5.78461099 3.16999412 -8.25 3.625 C-9.25353516 3.82609375 -9.25353516 3.82609375 -10.27734375 4.03125 C-17.53959449 5.42948295 -17.53959449 5.42948295 -21 5 C-22.8125 3.5 -22.8125 3.5 -24 2 C-15.97649696 0.81603117 -8.13544686 -0.28545428 0 0 Z " fill="#CC80E2" transform="translate(326,317)"/>
<path d="M0 0 C0.33 0 0.66 0 1 0 C1 2.64 1 5.28 1 8 C2.65 8 4.3 8 6 8 C-0.2696584 11.67479978 -9.08021327 11.72994668 -16 10 C-16 9.67 -16 9.34 -16 9 C-10.72 8.34 -5.44 7.68 0 7 C0 4.69 0 2.38 0 0 Z " fill="#CF9ADE" transform="translate(393,297)"/>
<path d="M0 0 C1.45945288 0.08708669 2.91765868 0.19526907 4.375 0.3125 C5.59316406 0.39951172 5.59316406 0.39951172 6.8359375 0.48828125 C9 1 9 1 11 4 C10.67 4.99 10.34 5.98 10 7 C9.67 6.34 9.34 5.68 9 5 C6.87423218 4.53348793 6.87423218 4.53348793 4.4375 4.375 C3.61121094 4.30023438 2.78492188 4.22546875 1.93359375 4.1484375 C1.29550781 4.09945313 0.65742188 4.05046875 0 4 C0 2.68 0 1.36 0 0 Z " fill="#D1B4D9" transform="translate(277,283)"/>
<path d="M0 0 C0 0.99 0 1.98 0 3 C-3.96 3.99 -7.92 4.98 -12 6 C-9.73584906 1.47169811 -9.73584906 1.47169811 -6 0.1875 C-4.948125 -0.19341797 -4.948125 -0.19341797 -3.875 -0.58203125 C-2 -1 -2 -1 0 0 Z " fill="#CD86E1" transform="translate(265,248)"/>
<path d="M0 0 C0 0.66 0 1.32 0 2 C-6.37358711 2.96205088 -12.55929529 3.10655578 -19 3 C-19 2.67 -19 2.34 -19 2 C-12.56986533 0.26044666 -6.65050424 -0.24991456 0 0 Z " fill="#CC82E1" transform="translate(351,299)"/>
<path d="M0 0 C0 0.99 0 1.98 0 3 C0.99 3.33 1.98 3.66 3 4 C-0.3 4.33 -3.6 4.66 -7 5 C-6.67 3.68 -6.34 2.36 -6 1 C-3 0 -3 0 0 0 Z " fill="#D0ADDA" transform="translate(285,303)"/>
<path d="M0 0 C0 0.33 0 0.66 0 1 C-1.98 1.33 -3.96 1.66 -6 2 C-1.545 2.99 -1.545 2.99 3 4 C3 4.33 3 4.66 3 5 C0.70858714 5.05384521 -1.58318188 5.09272087 -3.875 5.125 C-5.78925781 5.15980469 -5.78925781 5.15980469 -7.7421875 5.1953125 C-11 5 -11 5 -13 3 C-8.44573816 0.33409063 -5.26053037 -0.31563182 0 0 Z " fill="#CF9FDD" transform="translate(333,158)"/>
<path d="M0 0 C1.134375 0.020625 2.26875 0.04125 3.4375 0.0625 C3.4375 0.7225 3.4375 1.3825 3.4375 2.0625 C-0.88984391 4.29173777 -3.84650182 3.98720553 -8.5625 3.0625 C-7.923125 2.753125 -7.28375 2.44375 -6.625 2.125 C-2.58814103 0.04540598 -2.58814103 0.04540598 0 0 Z " fill="#CE91DF" transform="translate(335.5625,215.9375)"/>
<path d="M0 0 C1.09898702 3.29696105 0.87124444 4.40494903 0.0625 7.6875 C-0.22947266 8.89986328 -0.22947266 8.89986328 -0.52734375 10.13671875 C-0.68332031 10.75160156 -0.83929688 11.36648437 -1 12 C-1.99 12 -2.98 12 -4 12 C-3.34 8.7 -2.68 5.4 -2 2 C-2.66 1.67 -3.32 1.34 -4 1 C-2.68 0.67 -1.36 0.34 0 0 Z " fill="#CC7EE2" transform="translate(306,157)"/>
<path d="M0 0 C-2.64 0.99 -5.28 1.98 -8 3 C-8 3.33 -8 3.66 -8 4 C-9.65 4 -11.3 4 -13 4 C-13 3.01 -13 2.02 -13 1 C-11.58622218 0.63447197 -10.16879424 0.28304505 -8.75 -0.0625 C-7.96109375 -0.25972656 -7.1721875 -0.45695312 -6.359375 -0.66015625 C-4 -1 -4 -1 0 0 Z " fill="#CF9DDD" transform="translate(271,105)"/>
<path d="M0 0 C1.60769874 2.33116317 2.09530596 3.42816426 1.625 6.25 C1.41875 6.8275 1.2125 7.405 1 8 C0.401875 7.05125 -0.19625 6.1025 -0.8125 5.125 C-2.81562526 1.86035803 -2.81562526 1.86035803 -6 0 C-3 -1 -3 -1 0 0 Z " fill="#CD83E1" transform="translate(351,166)"/>
<path d="M0 0 C2.01822917 0.06510417 4.03645833 0.13020833 6.0546875 0.1953125 C6.0546875 0.5253125 6.0546875 0.8553125 6.0546875 1.1953125 C4.476875 1.5665625 4.476875 1.5665625 2.8671875 1.9453125 C-0.7586666 2.96232036 -3.14442022 4.64904679 -5.9453125 7.1953125 C-3.42094902 0.34346878 -3.42094902 0.34346878 0 0 Z " fill="#CD85E1" transform="translate(130.9453125,403.8046875)"/>
<path d="M0 0 C-1.49097658 3.7952131 -3.75700849 5.61042731 -7 8 C-7 5 -7 5 -4.625 2.3125 C-2 0 -2 0 0 0 Z " fill="#D1BCD8" transform="translate(119,391)"/>
<path d="M0 0 C1.32 0.33 2.64 0.66 4 1 C0.535 3.97 0.535 3.97 -3 7 C-3.66 6.67 -4.32 6.34 -5 6 C-4.67 5.34 -4.34 4.68 -4 4 C-3.34 4 -2.68 4 -2 4 C-1.34 2.68 -0.68 1.36 0 0 Z " fill="#D1BCD8" transform="translate(221,328)"/>
<path d="M0 0 C0.86625 0.3403125 0.86625 0.3403125 1.75 0.6875 C0.574375 1.2753125 0.574375 1.2753125 -0.625 1.875 C-3.60156418 3.93024669 -4.23823563 5.28429258 -5.25 8.6875 C-5.58 8.6875 -5.91 8.6875 -6.25 8.6875 C-6.5 5.875 -6.5 5.875 -6.25 2.6875 C-4.12558468 0.33546876 -3.18427034 -0.44225977 0 0 Z " fill="#D2C0D7" transform="translate(287.25,269.3125)"/>
</svg>
