<svg xmlns="http://www.w3.org/2000/svg" viewBox="0 0 64 64" fill="currentColor">
  <circle cx="32" cy="32" r="24" fill="currentColor" opacity="0.1"/>
  <path d="M32 16c-8.8 0-16 7.2-16 16 0 4.4 1.8 8.4 4.7 11.3L32 32l11.3 11.3c2.9-2.9 4.7-6.9 4.7-11.3 0-8.8-7.2-16-16-16z" fill="currentColor" opacity="0.7"/>
  <circle cx="32" cy="28" r="6" fill="white"/>
  <path d="M32 22c-3.3 0-6 2.7-6 6s2.7 6 6 6 6-2.7 6-6-2.7-6-6-6zm0 8c-1.1 0-2-.9-2-2s.9-2 2-2 2 .9 2 2-.9 2-2 2z" fill="currentColor"/>
  <text x="32" y="56" text-anchor="middle" font-size="6" font-weight="bold" fill="currentColor">WELLNESS</text>
</svg>
