<?xml version="1.0" encoding="UTF-8"?>
<svg version="1.1" xmlns="http://www.w3.org/2000/svg" width="609" height="609">
<path d="M0 0 C200.97 0 401.94 0 609 0 C609 200.97 609 401.94 609 609 C408.03 609 207.06 609 0 609 C0 408.03 0 207.06 0 0 Z " fill="#00047B" transform="translate(0,0)"/>
<path d="M0 0 C0.99 1.485 0.99 1.485 2 3 C5.78443716 8.53598721 9.55686663 13.75124207 14.4375 18.375 C22.51957063 26.1778972 28.41417344 35.79135093 33 46 C33.75539063 45.47792969 34.51078125 44.95585937 35.2890625 44.41796875 C43.63335525 38.79334533 52.29816128 34.18245936 61.35791016 29.80737305 C66.16002748 27.47830758 70.65555445 25.10627857 75 22 C75.61224303 48.47324536 68.97789217 74.52166406 57 98 C73.41718381 97.51219433 88.61303096 96.24480279 104 90 C104.99 89.67 105.98 89.34 107 89 C103.78056636 106.70688503 95.07627988 120.98139693 81.1875 132.3125 C58.54346143 147.88314721 36.08284092 147.5314553 10 143 C10 142.67 10 142.34 10 142 C10.69335449 141.96559814 11.38670898 141.93119629 12.10107422 141.89575195 C36.79418076 140.57924892 60.62044232 137.31859729 79 119 C83.27587694 114.03355162 83.27587694 114.03355162 85 108 C84.16952148 108.33136963 84.16952148 108.33136963 83.32226562 108.66943359 C74.46584588 111.79996677 65.94868725 111.011392 56.69921875 110.35546875 C49.7293546 110.11462528 45.7608026 110.44120664 40.50390625 115.26171875 C38.99633314 116.83516121 37.49430659 118.41395281 36 120 C29.14632386 125.28886762 20.89522502 128.6523745 12.8125 131.5625 C12.081521 131.82635498 11.35054199 132.09020996 10.59741211 132.36206055 C5.38588452 134.12862817 5.38588452 134.12862817 2 133 C3.23363281 132.38125 3.23363281 132.38125 4.4921875 131.75 C15.06607427 126.27990615 23.79914579 119.68964684 32 111 C20.57729255 113.11531619 13.13766021 119.02808074 6 128 C6 122.02547956 11.14840959 117.01060104 15.046875 112.77734375 C20.9672667 107.17025745 28.11051716 102.69532663 36.00244141 100.42358398 C39.89952154 99.24776424 42.25796248 98.271855 44.390625 94.69921875 C45.04156294 93.37686055 45.66028051 92.03827102 46.25 90.6875 C46.58153076 89.97182861 46.91306152 89.25615723 47.25463867 88.51879883 C52.95350554 75.83703081 55.0780344 62.65760405 57 49 C49.76284637 51.00224189 43.1258496 53.09316871 36.70703125 57.046875 C35 58 35 58 33 58 C33.061875 59.11375 33.12375 60.2275 33.1875 61.375 C33.13650679 71.02971537 28.94146525 80.77257033 22.3125 87.78515625 C21.879375 88.18605469 21.44625 88.58695312 21 89 C20.34 88.67 19.68 88.34 19 88 C19.42152344 87.24976563 19.84304688 86.49953125 20.27734375 85.7265625 C23.84457481 79.06213553 25.96639289 73.5952071 26 66 C20.34106341 72.45803714 16.95291505 78.95772905 14 87 C11.59049403 81.02861563 15.6854564 73.66208338 18 68 C22.65555556 58.34444444 22.65555556 58.34444444 25 56 C25.3585142 44.52754563 18.0372536 36.57926043 11.46044922 27.96386719 C2.30676506 15.92029519 2.30676506 15.92029519 0 9 C-0.1959375 9.52207031 -0.391875 10.04414063 -0.59375 10.58203125 C-3.41210034 17.51857455 -7.50441527 23.05694421 -12 29 C-13.78734192 31.38402151 -15.55387752 33.7822396 -17.3125 36.1875 C-17.94309326 37.02414185 -17.94309326 37.02414185 -18.58642578 37.87768555 C-22.70751856 43.5290675 -26.02205509 49.83623773 -25 57 C-23.93176406 59.69947096 -22.58225124 62.20700603 -21.1875 64.75 C-13.358014 79.70485064 -13.358014 79.70485064 -14.44140625 85.265625 C-14.62574219 85.83796875 -14.81007813 86.4103125 -15 87 C-15.37511719 86.05898438 -15.75023437 85.11796875 -16.13671875 84.1484375 C-19.89752961 74.8614453 -19.89752961 74.8614453 -26 67 C-25.00250224 74.13998397 -23.3989836 79.65523061 -20 86 C-20 86.99 -20 87.98 -20 89 C-27.84529282 80.71396039 -32.65057645 72.56087709 -33.125 60.9375 C-33.08375 60.298125 -33.0425 59.65875 -33 59 C-33.639375 58.773125 -34.27875 58.54625 -34.9375 58.3125 C-37.51881156 57.20622362 -39.72385481 55.99370324 -42.125 54.5625 C-47.16717325 51.68854627 -52.37286421 50.29371533 -58 49 C-55.95425933 63.53715719 -53.46657626 77.26785313 -47.25 90.6875 C-46.95134033 91.37158936 -46.65268066 92.05567871 -46.3449707 92.76049805 C-44.51002052 96.48813668 -43.04789298 98.32391332 -39.09765625 99.796875 C-37.7349168 100.20847987 -36.36913165 100.61018478 -35 101 C-22.42085882 106.22367958 -12.80255778 114.11705096 -6 126 C-6.33 126.66 -6.66 127.32 -7 128 C-7.51046875 127.34773438 -8.0209375 126.69546875 -8.546875 126.0234375 C-15.1674929 118.0646096 -22.60293634 112.68857421 -33 111 C-24.28411617 120.61960451 -14.68160306 127.35389185 -3 133 C-7.10871135 134.36957045 -9.90360844 132.97345777 -13.8125 131.5625 C-14.56861572 131.29026611 -15.32473145 131.01803223 -16.10375977 130.73754883 C-24.20903282 127.70455855 -33.10108894 124.13827856 -39.12353516 117.74609375 C-43.86756998 112.7947811 -46.96959273 110.41156017 -53.96875 110.2265625 C-56.48117788 110.31337938 -58.99236999 110.44717218 -61.5 110.625 C-70.30723592 111.08663313 -77.70862366 111.30834603 -86 108 C-82.15522031 120.303295 -70.78192715 127.06918587 -60 132.8125 C-44.3877749 140.12678963 -27.93987519 141.27753619 -11 142 C-11 142.33 -11 142.66 -11 143 C-35.72787621 147.33641253 -58.00662291 148.17363497 -80 134 C-93.8813745 123.99708079 -104.4857416 108.57699538 -107.625 91.625 C-107.74875 90.75875 -107.8725 89.8925 -108 89 C-107.28714844 89.28875 -106.57429687 89.5775 -105.83984375 89.875 C-90.12158789 96.10176436 -74.72260871 97.32253824 -58 98 C-58.44730469 97.09121094 -58.89460938 96.18242187 -59.35546875 95.24609375 C-70.33088366 72.5976869 -76.48809301 47.29948772 -76 22 C-75.23300781 22.44988281 -74.46601563 22.89976562 -73.67578125 23.36328125 C-68.06473518 26.61521155 -62.44054275 29.79586737 -56.67578125 32.76953125 C-55.75821045 33.24285889 -54.84063965 33.71618652 -53.89526367 34.20385742 C-52.08759689 35.13118873 -50.27668523 36.05222958 -48.4621582 36.96606445 C-42.87006259 39.83436224 -37.89443016 43.05531215 -33 47 C-32.62230469 46.15179688 -32.24460937 45.30359375 -31.85546875 44.4296875 C-25.93063933 31.80300185 -18.08867038 21.79590193 -8.015625 12.17578125 C-4.65260043 8.54553961 -2.31557969 4.34965754 0 0 Z " fill="#BB58E6" transform="translate(306,203)"/>
<path d="M0 0 C200.97 0 401.94 0 609 0 C609 0.99 609 1.98 609 3 C408.36 3 207.72 3 1 3 C1 202.98 1 402.96 1 609 C0.67 609 0.34 609 0 609 C0 408.03 0 207.06 0 0 Z " fill="#E9EBEF" transform="translate(0,0)"/>
<path d="M0 0 C3.83307169 -0.11719175 7.66567608 -0.18758077 11.5 -0.25 C12.57765625 -0.28351563 13.6553125 -0.31703125 14.765625 -0.3515625 C21.69293815 -0.43604193 26.1230121 0.25136052 32 4 C34.31001745 6.74314572 34.91176286 8.40755066 35.4375 11.9375 C34.80088403 16.3938118 32.95743917 19.45314563 29.3984375 22.265625 C27.96620487 23.22949719 26.48627437 24.12174696 25 25 C25.721875 25.45375 26.44375 25.9075 27.1875 26.375 C31.08951777 30.01688325 32.7993065 34.19538033 35 39 C35.86436359 40.8591489 36.73899708 42.71356575 37.625 44.5625 C38.00914062 45.38878906 38.39328125 46.21507812 38.7890625 47.06640625 C39.91900564 49.32643609 39.91900564 49.32643609 43 50 C43 50.66 43 51.32 43 52 C35.0904685 52.77544426 35.0904685 52.77544426 31.1875 50 C25.96163317 42.83309692 22.79163539 34.37490618 20 26 C17.03 25.67 14.06 25.34 11 25 C11.11004161 28.58395685 11.24063297 32.16687917 11.375 35.75 C11.4059375 36.76578125 11.436875 37.7815625 11.46875 38.828125 C11.50742187 39.8078125 11.54609375 40.7875 11.5859375 41.796875 C11.6173584 42.69760742 11.6487793 43.59833984 11.68115234 44.52636719 C11.90938791 47.36744199 11.90938791 47.36744199 14 51 C9.38 51 4.76 51 0 51 C0.66 49.68 1.32 48.36 2 47 C2.29855342 44.89130015 2.29855342 44.89130015 2.25878906 42.66210938 C2.26509338 41.81442993 2.27139771 40.96675049 2.27789307 40.09338379 C2.2738446 39.18600464 2.26979614 38.27862549 2.265625 37.34375 C2.26753845 36.40446655 2.2694519 35.46518311 2.27142334 34.49743652 C2.27278288 32.51375053 2.2691026 30.53005556 2.26074219 28.54638672 C2.25003946 25.51118981 2.26064537 22.47658477 2.2734375 19.44140625 C2.27211586 17.51301953 2.26955339 15.58463317 2.265625 13.65625 C2.27169769 12.29518127 2.27169769 12.29518127 2.27789307 10.90661621 C2.27158875 10.05893677 2.26528442 9.21125732 2.25878906 8.33789062 C2.25719788 7.59494751 2.25560669 6.85200439 2.25396729 6.08654785 C1.96432663 3.70691423 1.17865235 2.07125171 0 0 Z " fill="#ECEDF5" transform="translate(385,372)"/>
<path d="M0 0 C0.35038834 0.83232147 0.35038834 0.83232147 0.70785522 1.68145752 C3.13957461 7.45709579 5.57315323 13.23194806 8.0078125 19.00634766 C8.91616751 21.16141993 9.82404844 23.31669209 10.73144531 25.47216797 C12.03586199 28.57051436 13.34198244 31.66813767 14.6484375 34.765625 C15.25635635 36.21113739 15.25635635 36.21113739 15.8765564 37.68585205 C16.25679962 38.58648376 16.63704285 39.48711548 17.02880859 40.41503906 C17.36190033 41.20557678 17.69499207 41.9961145 18.03817749 42.81060791 C19.6593062 47.16040405 19.6593062 47.16040405 23 50 C23 50.66 23 51.32 23 52 C18.38 52 13.76 52 9 52 C9.33 51.01 9.66 50.02 10 49 C9.10102769 46.35511361 8.15461167 43.87313475 7.0625 41.3125 C6.051875 38.899375 5.04125 36.48625 4 34 C-2.27 33.67 -8.54 33.34 -15 33 C-15.495 35.475 -15.495 35.475 -16 38 C-16.51499925 39.32319114 -17.05574584 40.63672764 -17.625 41.9375 C-19.07080662 45.61836999 -19.06578206 48.12442886 -18 52 C-20.97 52 -23.94 52 -27 52 C-25.87235229 50.51790039 -25.87235229 50.51790039 -24.72192383 49.00585938 C-21.9900228 45.17337483 -20.17743846 41.26641201 -18.44921875 36.90625 C-18.14554886 36.15589478 -17.84187897 35.40553955 -17.52900696 34.63244629 C-16.89505459 33.0578066 -16.26589101 31.48123108 -15.64135742 29.90283203 C-14.68755033 27.50012679 -13.71102857 25.10753835 -12.73242188 22.71484375 C-12.11579597 21.17503568 -11.50051504 19.63468819 -10.88671875 18.09375 C-10.59617111 17.3862561 -10.30562347 16.67876221 -10.00627136 15.9498291 C-8.23833921 11.41472371 -7.70673104 7.86691542 -8 3 C-2.25 0 -2.25 0 0 0 Z " fill="#F3F3F9" transform="translate(208,371)"/>
<path d="M0 0 C0 3.3 0 6.6 0 10 C-1.70884005 8.37660195 -3.37446717 6.70680947 -5 5 C-5 4.34 -5 3.68 -5 3 C-10.31812744 0.42671253 -16.15742336 -0.6652839 -21.9375 0.6875 C-24.44144389 2.28091884 -25.20469346 3.13689646 -26 6 C-26.07575878 9.04638827 -26.07575878 9.04638827 -25 12 C-20.59482704 16.22127579 -15.45920088 18.08126349 -9.8828125 20.26757812 C-5.3043815 22.15510109 -2.33990703 24.21097669 1 28 C1.33 28.33 1.66 28.66 2 29 C2.61598529 33.50682907 2.98672826 38.03359154 0.90625 42.1796875 C-2.95715154 46.9678394 -7.31584609 49.5401992 -13.50390625 50.3125 C-20.62575962 50.63668109 -26.5515379 48.96248536 -33 46 C-34 45 -34 45 -34.09765625 42.27734375 C-34.08605469 41.17519531 -34.07445312 40.07304687 -34.0625 38.9375 C-34.05347656 37.83277344 -34.04445312 36.72804688 -34.03515625 35.58984375 C-34.02355469 34.73519531 -34.01195312 33.88054687 -34 33 C-33.34 33 -32.68 33 -32 33 C-30.43943348 35.43924327 -29.10262446 37.97019101 -27.73046875 40.51953125 C-25.25172353 44.07258591 -22.68180582 45.58480419 -18.5 46.6171875 C-14.63417523 47.01585068 -11.68629968 47.21009174 -7.9375 46.0625 C-5.50700464 43.47519849 -5.10694053 41.56755697 -4.5546875 38.1328125 C-5.28756023 34.62273786 -7.2766678 33.24337156 -10 31 C-12.58906835 29.60296605 -15.26314756 28.51052794 -18 27.4375 C-23.53481154 25.23685076 -28.61081868 23.1855751 -32.3125 18.25 C-33.71021989 13.67564398 -33.68384327 9.58363705 -31.8125 5.25 C-23.29344647 -5.32537679 -11.60568745 -4.49252417 0 0 Z " fill="#F5F5FA" transform="translate(273,374)"/>
<path d="M0 0 C4.96622349 -0.02465098 9.93241166 -0.04283649 14.89868164 -0.05493164 C16.58944316 -0.0599719 18.28020029 -0.06680405 19.97094727 -0.07543945 C22.39600707 -0.08751857 24.82100944 -0.09323123 27.24609375 -0.09765625 C28.38672523 -0.10539818 28.38672523 -0.10539818 29.55039978 -0.11329651 C31.3673257 -0.11349238 33.18413127 -0.06197277 35 0 C36 1 36 1 36.09765625 3.28515625 C36.08605469 4.20167969 36.07445312 5.11820312 36.0625 6.0625 C36.05347656 6.98160156 36.04445313 7.90070313 36.03515625 8.84765625 C36.02355469 9.55792969 36.01195312 10.26820313 36 11 C35.34 11 34.68 11 34 11 C33.443125 10.071875 32.88625 9.14375 32.3125 8.1875 C29.62403801 4.48178212 27.35059122 3.02818205 23 2 C18.99046971 1.48814507 15.04164997 1.22705899 11 1 C11 8.26 11 15.52 11 23 C14.09375 22.814375 14.09375 22.814375 17.25 22.625 C18.99023438 22.52058594 18.99023438 22.52058594 20.765625 22.4140625 C25.70409865 21.78184244 27.46735872 20.53264128 31 17 C31 21.29 31 25.58 31 30 C29.35 28.68 27.7 27.36 26 26 C23.27444524 25.55939218 20.9119316 25.30735645 18.1875 25.25 C17.49462891 25.22035156 16.80175781 25.19070313 16.08789062 25.16015625 C14.39253787 25.09000372 12.69626688 25.04267338 11 25 C11.13815529 28.81281945 11.28680562 32.62515717 11.4375 36.4375 C11.47681641 37.52611328 11.51613281 38.61472656 11.55664062 39.73632812 C11.61948242 41.28803711 11.61948242 41.28803711 11.68359375 42.87109375 C11.72025146 43.82943115 11.75690918 44.78776855 11.79467773 45.77514648 C11.75834424 47.97138925 11.75834424 47.97138925 13 49 C20.28279297 49.71080059 27.05598567 49.68633876 33 45 C34.86310322 42.39975951 34.86310322 42.39975951 36 40 C36.66 40 37.32 40 38 40 C37.67 43.63 37.34 47.26 37 51 C24.79 51 12.58 51 0 51 C0.66 49.68 1.32 48.36 2 47 C2.29855342 44.89130015 2.29855342 44.89130015 2.25878906 42.66210938 C2.26509338 41.81442993 2.27139771 40.96675049 2.27789307 40.09338379 C2.2738446 39.18600464 2.26979614 38.27862549 2.265625 37.34375 C2.26753845 36.40446655 2.2694519 35.46518311 2.27142334 34.49743652 C2.27278288 32.51375053 2.2691026 30.53005556 2.26074219 28.54638672 C2.25003946 25.51118981 2.26064537 22.47658477 2.2734375 19.44140625 C2.27211586 17.51301953 2.26955339 15.58463317 2.265625 13.65625 C2.27169769 12.29518127 2.27169769 12.29518127 2.27789307 10.90661621 C2.27158875 10.05893677 2.26528442 9.21125732 2.25878906 8.33789062 C2.25719788 7.59494751 2.25560669 6.85200439 2.25396729 6.08654785 C1.96432663 3.70691423 1.17865235 2.07125171 0 0 Z " fill="#FBFBFC" transform="translate(335,372)"/>
<path d="M0 0 C12.87 0 25.74 0 39 0 C39 2.97 39 5.94 39 9 C38.34 9 37.68 9 37 9 C36.484375 8.21625 35.96875 7.4325 35.4375 6.625 C32.79096842 3.77488907 31.99851588 3.53789973 28.34765625 2.8359375 C27.53433838 2.67399902 26.72102051 2.51206055 25.88305664 2.34521484 C25.26164795 2.23129395 24.64023926 2.11737305 24 2 C24.11755091 8.49631022 24.24238331 14.99245106 24.37231445 21.48852539 C24.41566552 23.69910498 24.45734046 25.90971809 24.49731445 28.12036133 C24.55501266 31.29518749 24.61870862 34.46984486 24.68359375 37.64453125 C24.70030624 38.63524124 24.71701874 39.62595123 24.73423767 40.64668274 C24.75418289 41.56741074 24.77412811 42.48813873 24.79467773 43.43676758 C24.81799416 44.65255241 24.81799416 44.65255241 24.84178162 45.89289856 C24.92809721 48.19146683 24.92809721 48.19146683 26 51 C21.38 51 16.76 51 12 51 C12.66 49.68 13.32 48.36 14 47 C14.32265837 44.78226733 14.32265837 44.78226733 14.31884766 42.41503906 C14.33871735 41.51440735 14.35858704 40.61377563 14.37905884 39.68585205 C14.39638565 38.24033966 14.39638565 38.24033966 14.4140625 36.765625 C14.43342865 35.77246277 14.4527948 34.77930054 14.4727478 33.75604248 C14.53247322 30.58744871 14.57890111 27.41881847 14.625 24.25 C14.66318623 22.10024467 14.70223834 19.95050454 14.7421875 17.80078125 C14.83816891 12.53398915 14.92323704 7.26710536 15 2 C13.3963644 2.26645602 11.79523726 2.54803698 10.1953125 2.8359375 C9.30344238 2.9911084 8.41157227 3.1462793 7.49267578 3.30615234 C3.80397733 4.33291836 2.33682069 6.04002713 0 9 C0 6.03 0 3.06 0 0 Z " fill="#EDEEF6" transform="translate(285,372)"/>
<path d="M0 0 C5.94 0 11.88 0 18 0 C18 0.33 18 0.66 18 1 C15.69 1.33 13.38 1.66 11 2 C10.67 9.26 10.34 16.52 10 24 C12.64 24 15.28 24 18 24 C18 24.33 18 24.66 18 25 C15.69 25 13.38 25 11 25 C11.11004161 28.58395685 11.24063297 32.16687917 11.375 35.75 C11.4059375 36.76578125 11.436875 37.7815625 11.46875 38.828125 C11.50742187 39.8078125 11.54609375 40.7875 11.5859375 41.796875 C11.6173584 42.69760742 11.6487793 43.59833984 11.68115234 44.52636719 C11.90938791 47.36744199 11.90938791 47.36744199 14 51 C9.38 51 4.76 51 0 51 C0.66 49.68 1.32 48.36 2 47 C2.29855342 44.89130015 2.29855342 44.89130015 2.25878906 42.66210938 C2.26509338 41.81442993 2.27139771 40.96675049 2.27789307 40.09338379 C2.2738446 39.18600464 2.26979614 38.27862549 2.265625 37.34375 C2.26753845 36.40446655 2.2694519 35.46518311 2.27142334 34.49743652 C2.27278288 32.51375053 2.2691026 30.53005556 2.26074219 28.54638672 C2.25003946 25.51118981 2.26064537 22.47658477 2.2734375 19.44140625 C2.27211586 17.51301953 2.26955339 15.58463317 2.265625 13.65625 C2.27169769 12.29518127 2.27169769 12.29518127 2.27789307 10.90661621 C2.27158875 10.05893677 2.26528442 9.21125732 2.25878906 8.33789062 C2.25719788 7.59494751 2.25560669 6.85200439 2.25396729 6.08654785 C2.06661241 3.57344436 2.06661241 3.57344436 0 0 Z " fill="#FAFAFC" transform="translate(385,372)"/>
<path d="M0 0 C9.35714286 0 9.35714286 0 13 3 C15.54197048 7.21266485 15.79445871 11.19907748 15 16 C13.125 19.0625 13.125 19.0625 10 21 C6.7 21 3.4 21 0 21 C0 14.07 0 7.14 0 0 Z " fill="#02067C" transform="translate(396,374)"/>
<path d="M0 0 C3.44981203 2.72679753 4.61672826 6.52089115 6.125 10.5 C6.38925781 11.17675781 6.65351563 11.85351562 6.92578125 12.55078125 C8.01323912 15.34946724 9.05043435 18.15130306 10 21 C4.06 21 -1.88 21 -8 21 C-5.72564796 13.81783567 -2.96415819 6.9241798 0 0 Z " fill="#0D1081" transform="translate(202,382)"/>
<path d="M0 0 C0.66 0 1.32 0 2 0 C3.56056652 2.43924327 4.89737554 4.97019101 6.26953125 7.51953125 C8.22303742 10.31970375 9.99067146 11.45165193 13 13 C13.639375 13.37125 14.27875 13.7425 14.9375 14.125 C17.57893451 15.24560858 20.16732162 15.61372568 23 16 C23 16.33 23 16.66 23 17 C14.8569537 17.56702063 8.43516776 16.4157874 1 13 C0 12 0 12 -0.09765625 9.27734375 C-0.08605469 8.17519531 -0.07445312 7.07304687 -0.0625 5.9375 C-0.05347656 4.83277344 -0.04445312 3.72804688 -0.03515625 2.58984375 C-0.02355469 1.73519531 -0.01195312 0.88054687 0 0 Z " fill="#E2E3F0" transform="translate(239,407)"/>
<path d="M0 0 C0 3.3 0 6.6 0 10 C-1.70884005 8.37660195 -3.37446717 6.70680947 -5 5 C-5 4.34 -5 3.68 -5 3 C-10.19480666 0.48638387 -16.12013966 -0.78541646 -21.75 0.75 C-25.26925283 2.70514046 -28.64958505 4.76639003 -32 7 C-30.12988126 2.23969776 -26.86922369 -0.13059363 -22.3125 -2.25 C-14.19565617 -4.08777596 -7.6797073 -2.97278992 0 0 Z " fill="#E9E9F3" transform="translate(273,374)"/>
<path d="M0 0 C0.33 0 0.66 0 1 0 C1 4.29 1 8.58 1 13 C-0.65 11.68 -2.3 10.36 -4 9 C-6.75251332 8.55503412 -9.06699942 8.3087786 -11.8125 8.25 C-14.184375 8.1675 -16.55625 8.085 -19 8 C-19 15.26 -19 22.52 -19 30 C-19.33 30 -19.66 30 -20 30 C-20 22.41 -20 14.82 -20 7 C-15.38 7 -10.76 7 -6 7 C-6 6.34 -6 5.68 -6 5 C-5.38125 4.731875 -4.7625 4.46375 -4.125 4.1875 C-1.7004767 3.04443152 -1.7004767 3.04443152 0 0 Z " fill="#DADBEC" transform="translate(365,389)"/>
<path d="M0 0 C0.66 0 1.32 0 2 0 C1.67 3.63 1.34 7.26 1 11 C-2.96 11 -6.92 11 -11 11 C-11 10.34 -11 9.68 -11 9 C-10.45730469 8.76925781 -9.91460937 8.53851563 -9.35546875 8.30078125 C-4.71637928 6.18602515 -2.3515325 4.703065 0 0 Z " fill="#E7E8F3" transform="translate(371,412)"/>
<path d="M0 0 C0.89589844 0.01417969 1.79179687 0.02835937 2.71484375 0.04296875 C4.06255859 0.05263672 4.06255859 0.05263672 5.4375 0.0625 C7.65234375 0.23046875 7.65234375 0.23046875 8.65234375 1.23046875 C8.72439886 2.91655841 8.73620443 4.60547534 8.71484375 6.29296875 C8.70582031 7.21207031 8.69679688 8.13117188 8.6875 9.078125 C8.67589844 9.78839844 8.66429687 10.49867188 8.65234375 11.23046875 C7.99234375 11.23046875 7.33234375 11.23046875 6.65234375 11.23046875 C6.09546875 10.30234375 5.53859375 9.37421875 4.96484375 8.41796875 C2.0905776 4.45614243 0.18136762 3.79820778 -4.34765625 2.23046875 C-2.34765625 0.23046875 -2.34765625 0.23046875 0 0 Z " fill="#E1E2EF" transform="translate(362.34765625,371.76953125)"/>
<path d="M0 0 C0.66 0.33 1.32 0.66 2 1 C1.79503906 1.56847656 1.59007812 2.13695312 1.37890625 2.72265625 C-0.28785213 7.49963361 -1.58756909 11.94772132 -2 17 C-1.67 17.66 -1.34 18.32 -1 19 C-3.97 19 -6.94 19 -10 19 C-9.278125 18.0925 -8.55625 17.185 -7.8125 16.25 C-4.23400483 11.29122812 -2.18867663 5.6719322 0 0 Z " fill="#F0F0F7" transform="translate(191,404)"/>
<path d="M0 0 C1.32 0 2.64 0 4 0 C3.67 0.66 3.34 1.32 3 2 C-0.05431742 8.64228881 -3.04459524 15.31319035 -6 22 C-6.66 22 -7.32 22 -8 22 C-5.60309494 14.55697903 -2.84737559 7.28162848 0 0 Z " fill="#D1D1E7" transform="translate(200,381)"/>
<path d="M0 0 C2.97 0 5.94 0 9 0 C9 2.97 9 5.94 9 9 C8.34 9 7.68 9 7 9 C5.65080468 7.34614767 4.31866272 5.678298 3 4 C2.01 3.34 1.02 2.68 0 2 C0 1.34 0 0.68 0 0 Z " fill="#E6E6F2" transform="translate(315,372)"/>
<path d="M0 0 C0 3 0 3 -2 6 C-4.05859375 6.984375 -4.05859375 6.984375 -6.4375 7.75 C-7.21996094 8.01296875 -8.00242187 8.2759375 -8.80859375 8.546875 C-11 9 -11 9 -14 8 C-13.07316406 7.50628906 -12.14632813 7.01257813 -11.19140625 6.50390625 C-9.98172045 5.85686501 -8.77208778 5.20972446 -7.5625 4.5625 C-6.95083984 4.23701172 -6.33917969 3.91152344 -5.70898438 3.57617188 C-2.66283794 2.06284858 -2.66283794 2.06284858 0 0 Z " fill="#AA51DE" transform="translate(322,328)"/>
<path d="M0 0 C0.66 0.33 1.32 0.66 2 1 C0.66666667 5 -0.66666667 9 -2 13 C-2.99 12.67 -3.98 12.34 -5 12 C-3.35 8.04 -1.7 4.08 0 0 Z " fill="#CBCCE4" transform="translate(191,404)"/>
<path d="M0 0 C1.32 0.33 2.64 0.66 4 1 C3.73445313 1.51949219 3.46890625 2.03898437 3.1953125 2.57421875 C1.29301903 6.33020694 -0.51959705 10.05225879 -2 14 C-3.25127906 10.45332822 -2.72285053 8.27746562 -1.5625 4.75 C-1.27503906 3.85796875 -0.98757813 2.9659375 -0.69140625 2.046875 C-0.46324219 1.37140625 -0.23507812 0.6959375 0 0 Z " fill="#8F44CE" transform="translate(322,276)"/>
<path d="M0 0 C0.99 0 1.98 0 3 0 C3.53341184 1.57914015 4.05125763 3.16354387 4.5625 4.75 C4.85253906 5.63171875 5.14257812 6.5134375 5.44140625 7.421875 C6.01697435 10.07834316 5.89248371 11.47031106 5 14 C4.16235732 12.04350603 3.33000941 10.08474444 2.5 8.125 C2.0359375 7.03445313 1.571875 5.94390625 1.09375 4.8203125 C0 2 0 2 0 0 Z " fill="#9346D0" transform="translate(286,276)"/>
<path d="M0 0 C2.125 0.9375 2.125 0.9375 4 2 C3.278125 2.268125 2.55625 2.53625 1.8125 2.8125 C-2.09404689 4.46193091 -5.47868809 6.65245873 -9 9 C-7.27592413 4.61144323 -4.17026127 2.08513063 0 0 Z " fill="#D6D7EA" transform="translate(250,372)"/>
<path d="M0 0 C0.66 0.66 1.32 1.32 2 2 C0.02 4.31 -1.96 6.62 -4 9 C-4.66 8.67 -5.32 8.34 -6 8 C-2.25 1.125 -2.25 1.125 0 0 Z " fill="#A24DD9" transform="translate(331,283)"/>
<path d="M0 0 C-0.99 0.33 -1.98 0.66 -3 1 C-3 1.66 -3 2.32 -3 3 C-6.3 2.67 -9.6 2.34 -13 2 C-13 1.67 -13 1.34 -13 1 C-8.61414671 0.29826347 -4.44209357 -0.10834375 0 0 Z " fill="#C6C7E1" transform="translate(409,372)"/>
</svg>
